<svg width="24" height="24" viewBox="0 0 24 24" fill="none" xmlns="http://www.w3.org/2000/svg">
<g id="24_icon-fill/archive">
<path id="Union" d="M19.2002 10C19.4799 10 19.6197 10.0003 19.7266 10.0547C19.8206 10.1026 19.8974 10.1794 19.9453 10.2734C19.9997 10.3803 20 10.5201 20 10.7998V14.5996C20 16.8398 20.0004 17.9608 19.5645 18.8164C19.181 19.5689 18.5689 20.181 17.8164 20.5645C16.9608 21.0004 15.8398 21 13.5996 21H10.4004C8.16018 21 7.03924 21.0004 6.18359 20.5645C5.43109 20.181 4.81902 19.5689 4.43555 18.8164C3.99957 17.9608 4 16.8398 4 14.5996V10.7998C4 10.5201 4.00034 10.3803 4.05469 10.2734C4.10262 10.1794 4.17936 10.1026 4.27344 10.0547C4.38033 10.0003 4.52014 10 4.7998 10H19.2002ZM9.5 13C9.22386 13 9 13.2239 9 13.5V14C9 14.5523 9.44772 15 10 15H14C14.5523 15 15 14.5523 15 14V13.5C15 13.2239 14.7761 13 14.5 13H9.5ZM19 4.40039C19.465 4.40039 19.6979 4.40006 19.8887 4.45117C20.406 4.58993 20.8105 4.99435 20.9492 5.51172C21.0003 5.70247 21 5.9354 21 6.40039C21 6.86538 21.0003 7.09831 20.9492 7.28906C20.8105 7.80643 20.406 8.21085 19.8887 8.34961C19.6979 8.40072 19.465 8.40039 19 8.40039H5C4.53501 8.40039 4.30208 8.40072 4.11133 8.34961C3.59396 8.21085 3.18954 7.80643 3.05078 7.28906C2.99967 7.09831 3 6.86538 3 6.40039C3 5.9354 2.99967 5.70247 3.05078 5.51172C3.18954 4.99435 3.59396 4.58993 4.11133 4.45117C4.30208 4.40006 4.53501 4.40039 5 4.40039H19Z" fill="currentColor"/>
</g>

</svg>
