<svg width="24" height="24" viewBox="0 0 24 24" fill="none" xmlns="http://www.w3.org/2000/svg">
<g id="24_icon-fill/arrow-uturn">
<path id="Vector" d="M15 6C15.5523 6 16 6.44772 16 7C16 7.55228 15.5523 8 15 8H11C8.79086 8 7 9.79086 7 12C7 14.2091 8.79086 16 11 16H14V14.1348C14.0002 13.2871 14.9894 12.8245 15.6406 13.3672L19.0781 16.2314C19.5579 16.6312 19.5579 17.3688 19.0781 17.7686L15.6406 20.6328C14.9894 21.1755 14.0002 20.7129 14 19.8652V18H11C7.68629 18 5 15.3137 5 12C5 8.68629 7.68629 6 11 6H15Z" fill="currentColor"/>
</g>

</svg>
