<svg width="24" height="24" viewBox="0 0 24 24" fill="none" xmlns="http://www.w3.org/2000/svg">
<g id="24_icon-fill/arrow-left">
<path id="Vector" d="M3.79287 12.7049C3.40239 12.3143 3.40236 11.6813 3.79287 11.2908L10.3788 4.70486C11.0087 4.07525 12.0856 4.52125 12.0858 5.41189V7.99783H17.0858C18.1903 7.99791 19.0858 8.89336 19.0858 9.99783V13.9978C19.0858 15.1023 18.1903 15.9977 17.0858 15.9978H12.0858V18.5838C12.0858 19.4746 11.0088 19.9206 10.3788 19.2908L3.79287 12.7049Z" fill="currentColor"/>
<path id="Union" d="M10.0492 4.13444C10.6824 3.51578 11.7482 3.96411 11.7484 4.84928V8.00162C11.8876 8.00098 12.0374 8.00065 12.1986 8.00065H16.7982C17.9183 8.00065 18.4788 8.00043 18.9066 8.21842C19.2828 8.41016 19.5889 8.71619 19.7806 9.09244C19.9986 9.52027 19.9984 10.0807 19.9984 11.2008V12.8005C19.9984 13.9206 19.9986 14.481 19.7806 14.9089C19.5889 15.2851 19.2828 15.5911 18.9066 15.7829C18.4788 16.0009 17.9183 16.0006 16.7982 16.0006H12.1986C12.0374 16.0006 11.8876 15.9993 11.7484 15.9987V19.152C11.7482 20.0372 10.6824 20.4855 10.0492 19.8669L2.73081 12.7155C2.32931 12.3232 2.32931 11.6781 2.73081 11.2858L10.0492 4.13444Z" fill="currentColor"/>
</g>

</svg>
