<svg width="24" height="24" viewBox="0 0 24 24" fill="none" xmlns="http://www.w3.org/2000/svg">
<g id="24_icon-fill/cash">
<path id="Vector" d="M2.90137 5.57306C10.4362 1.68734 13.4707 8.36416 19.752 5.92071C20.767 5.52601 22 6.18517 22 7.27423V16.8777C22 17.5164 21.6662 18.1182 21.0986 18.4109C13.5639 22.2972 10.5292 15.6304 4.24805 18.076C3.23314 18.4712 2 17.8126 2 16.7234V7.10528C2.00003 6.46666 2.33377 5.86578 2.90137 5.57306Z" fill="currentColor"/>
<path id="Vector_2" d="M9 11.0801H12.5" stroke="var(--background)" stroke-width="1.2" stroke-linecap="round"/>
<path id="Vector_3" d="M9 13.0938H12.5" stroke="var(--background)" stroke-width="1.2" stroke-linecap="round"/>
<path id="Vector_4" d="M15.001 14.1998C14.5817 14.8334 13.7304 15.2558 12.9042 15.2558C11.2268 15.2558 9.96875 13.8375 9.96875 12.0879C9.96875 10.3383 11.2268 8.91992 12.9042 8.91992C13.7304 8.91992 14.5817 9.34232 15.001 9.97591" stroke="var(--background)" stroke-width="1.2" stroke-linecap="round"/>
</g>

</svg>
