<svg width="24" height="24" viewBox="0 0 24 24" fill="none" xmlns="http://www.w3.org/2000/svg">
<g id="24_icon-fill/cash">
<path id="Subtract" d="M2.90137 5.57306C10.4362 1.68734 13.4707 8.36416 19.752 5.92071C20.767 5.52601 22 6.18517 22 7.27423V16.8777C22 17.5164 21.6662 18.1182 21.0986 18.4109C13.5639 22.2972 10.5292 15.6304 4.24805 18.076C3.23315 18.4712 2.00001 17.8126 2 16.7234V7.10528C2.00003 6.46666 2.33378 5.86578 2.90137 5.57306ZM14.3311 8.56427C14.0548 8.38139 13.6829 8.45695 13.5 8.73321L12 10.9988L10.5 8.73321C10.3171 8.45695 9.94524 8.38139 9.66895 8.56427C9.39269 8.74718 9.31713 9.11902 9.5 9.39532L11.4004 12.2654V12.7967H9.60156C9.27019 12.7967 9.00195 13.0649 9.00195 13.3963C9.00195 13.7277 9.27019 13.9959 9.60156 13.9959H11.4004V15.8133C11.4006 16.1444 11.6688 16.4129 12 16.4129C12.3312 16.4129 12.5994 16.1444 12.5996 15.8133V13.9959H14.4014C14.7327 13.9959 15.002 13.7277 15.002 13.3963C15.002 13.0649 14.7327 12.7967 14.4014 12.7967H12.5996V12.2654L14.5 9.39532C14.6829 9.11902 14.6073 8.74718 14.3311 8.56427Z" fill="currentColor"/>
</g>

</svg>
