<svg width="24" height="24" viewBox="0 0 24 24" fill="none" xmlns="http://www.w3.org/2000/svg">
<g id="24_icon-fill/bell">
<g id="Union">
<path d="M11.999 15.8975C12.8849 15.8975 13.7175 15.9655 14.4658 16.083C14.4001 17.3911 13.3225 18.4316 11.998 18.4316C10.6737 18.4316 9.59497 17.3911 9.5293 16.083C10.2784 15.9652 11.112 15.8975 11.999 15.8975Z" fill="currentColor"/>
<path fill-rule="evenodd" clip-rule="evenodd" d="M11.998 1.60352C12.8181 1.60352 13.4834 2.26882 13.4834 3.08887C13.4834 3.11776 13.4801 3.14632 13.4785 3.1748C16.2434 3.84052 18.2978 6.3286 18.2979 9.29785V12.6748C18.2979 13.3616 18.706 13.9694 19.25 14.3887C20.3484 15.2352 20.9978 16.3991 20.998 17.3965C20.998 19.8814 16.969 21.8965 11.999 21.8965C7.02904 21.8965 3 19.8815 3 17.3965C3.0002 16.3991 3.64962 15.2352 4.74805 14.3887C5.29202 13.9694 5.69922 13.3616 5.69922 12.6748V9.29785C5.69925 6.3292 7.7535 3.84112 10.5176 3.1748C10.5159 3.14634 10.5137 3.11774 10.5137 3.08887C10.5137 2.26897 11.1782 1.60376 11.998 1.60352ZM11.999 14.6973C11.2392 14.6973 10.5076 14.7442 9.82227 14.8301C7.00971 15.1822 4.97695 16.1977 4.97656 17.3965C4.97656 18.8875 8.12063 20.0967 11.999 20.0967C15.8774 20.0967 19.0215 18.8875 19.0215 17.3965C19.0211 16.1991 16.993 15.1853 14.1855 14.832C13.4974 14.7454 12.7625 14.6973 11.999 14.6973Z" fill="currentColor"/>
</g>
</g>

</svg>
