<svg width="24" height="24" viewBox="0 0 24 24" fill="none" xmlns="http://www.w3.org/2000/svg">
<g id="24_icon-fill/bell-off_alt">
<path id="Vector" d="M11.998 1.60352C12.818 1.60354 13.4833 2.26884 13.4833 3.08887C13.4833 3.11776 13.4801 3.14632 13.4784 3.1748C14.9295 3.52418 16.1843 4.37584 17.0497 5.53516L20.2929 2.29297C20.6834 1.90251 21.3165 1.90247 21.707 2.29297C22.0507 2.6368 22.0906 3.16787 21.829 3.55664L3.55656 21.8291C3.16779 22.0908 2.63676 22.0508 2.29289 21.707C1.90237 21.3165 1.90237 20.6835 2.29289 20.293L3.58781 18.9971C3.20873 18.4995 2.99992 17.9606 2.99992 17.3965C3.00013 16.3991 3.64954 15.2352 4.74797 14.3887C5.29193 13.9694 5.69914 13.3616 5.69914 12.6748V9.29785C5.69917 6.3292 7.75343 3.84112 10.5175 3.1748C10.5159 3.14634 10.5136 3.11774 10.5136 3.08887C10.5136 2.26897 11.1781 1.60376 11.998 1.60352ZM18.2978 12.6748C18.2978 13.3616 18.7059 13.9694 19.2499 14.3887C20.3483 15.2352 20.9978 16.3991 20.998 17.3965C20.998 19.8814 16.9689 21.8964 11.9989 21.8965C10.1742 21.8965 8.4775 21.6215 7.05949 21.1543L8.48137 19.7324C9.51572 19.9633 10.7171 20.0967 11.9989 20.0967C15.8773 20.0967 19.0214 18.8875 19.0214 17.3965C19.021 16.1992 16.9929 15.1853 14.1855 14.832C13.9477 14.8021 13.7042 14.7782 13.456 14.7578L18.2978 9.91699V12.6748ZM7.13371 15.4512C5.80435 15.9421 4.97673 16.6317 4.97649 17.3965C4.97649 17.4613 4.98434 17.5252 4.99602 17.5889L7.13371 15.4512Z" fill="currentColor"/>
</g>

</svg>
