<svg width="24" height="24" viewBox="0 0 24 24" fill="none" xmlns="http://www.w3.org/2000/svg">
<g id="24_icon-fill/briefcase_alt">
<path id="Union" d="M3 14.752C3.00001 14.4018 3.39649 14.1867 3.70996 14.3428C4.83345 14.902 6.21905 15.1982 7.79004 15.1982H9.8252C9.93513 15.1982 10.0223 15.2825 10.0508 15.3887C10.1895 15.906 10.594 16.3105 11.1113 16.4492C11.3021 16.5003 11.535 16.5 12 16.5C12.465 16.5 12.6979 16.5003 12.8887 16.4492C13.406 16.3105 13.8105 15.906 13.9492 15.3887C13.9777 15.2825 14.0649 15.1982 14.1748 15.1982H16.2109C17.7819 15.1982 19.1675 14.9019 20.291 14.3428C20.6042 14.187 21 14.4022 21 14.752C21 16.9919 21.0004 18.1122 20.5645 18.9678C20.181 19.7203 19.5689 20.3323 18.8164 20.7158C17.9608 21.1518 16.8398 21.1514 14.5996 21.1514H9.40039C7.16018 21.1514 6.03924 21.1518 5.18359 20.7158C4.43109 20.3323 3.81899 19.7203 3.43555 18.9678C2.99963 18.1122 3 16.9919 3 14.752ZM12.2998 2.02149C12.8434 2.02149 13.3116 2.02042 13.6953 2.05176C14.0906 2.08407 14.484 2.15589 14.8623 2.34864C15.4265 2.63621 15.8853 3.09496 16.1729 3.65918C16.3656 4.03748 16.4374 4.43092 16.4697 4.82618C16.4967 5.15666 16.4987 5.54993 16.499 6H18.8418C21.4734 6 22 7.50001 22 10C22 12.2091 19.8949 13.9999 16.2109 14H14.3867C14.168 14 14.0058 13.8226 13.9492 13.6113C13.8105 13.094 13.406 12.6895 12.8887 12.5508C12.6979 12.4997 12.465 12.5 12 12.5C11.535 12.5 11.3021 12.4997 11.1113 12.5508C10.594 12.6895 10.1895 13.094 10.0508 13.6113C9.99418 13.8226 9.83198 14 9.61328 14H7.78906C4.10511 13.9999 2 12.2091 2 10C2 7.50001 2.52663 6 5.1582 6H7.50098C7.50127 5.54993 7.50327 5.15666 7.53027 4.82618C7.56258 4.43092 7.6344 4.03748 7.82715 3.65918C8.11472 3.09496 8.57347 2.63621 9.1377 2.34864C9.51599 2.15589 9.90943 2.08407 10.3047 2.05176C10.6884 2.02042 11.1566 2.02149 11.7002 2.02149H12.2998ZM11.7002 4.02149C11.1236 4.02149 10.7511 4.02275 10.4678 4.0459C10.1962 4.0681 10.0953 4.10567 10.0459 4.13086C9.85793 4.2267 9.70521 4.37942 9.60938 4.56739C9.58419 4.61682 9.54661 4.71768 9.52441 4.98926C9.50438 5.23452 9.50159 5.54661 9.50098 6H14.499C14.4984 5.54661 14.4956 5.23452 14.4756 4.98926C14.4534 4.71768 14.4158 4.61682 14.3906 4.56739C14.2948 4.37942 14.1421 4.2267 13.9541 4.13086C13.9047 4.10567 13.8038 4.0681 13.5322 4.0459C13.2489 4.02275 12.8764 4.02149 12.2998 4.02149H11.7002Z" fill="currentColor"/>
</g>

</svg>
