<svg width="24" height="24" viewBox="0 0 24 24" fill="none" xmlns="http://www.w3.org/2000/svg">
<g id="24_icon-fill/calendar">
<path id="Subtract" d="M13.9004 3.5C16.329 3.5 17.5435 3.5 18.4541 4.00977C19.0977 4.37022 19.6298 4.90227 19.9902 5.5459C20.5 6.4565 20.5 7.67103 20.5 10.0996V13.9004C20.5 16.329 20.5 17.5435 19.9902 18.4541C19.6298 19.0977 19.0977 19.6298 18.4541 19.9902C17.5435 20.5 16.329 20.5 13.9004 20.5H10.0996C7.67103 20.5 6.4565 20.5 5.5459 19.9902C4.90227 19.6298 4.37022 19.0977 4.00977 18.4541C3.5 17.5435 3.5 16.329 3.5 13.9004V10.0996C3.5 7.67103 3.5 6.4565 4.00977 5.5459C4.37022 4.90227 4.90227 4.37022 5.5459 4.00977C6.4565 3.5 7.67103 3.5 10.0996 3.5H13.9004Z" fill="currentColor"/>
<path id="Vector 234255855" d="M8 2.5V5.5" stroke="currentColor" stroke-width="2" stroke-linecap="round" stroke-linejoin="round"/>
<path id="Vector 234255856" d="M16 2.5V5.5" stroke="currentColor" stroke-width="2" stroke-linecap="round" stroke-linejoin="round"/>
<path id="Vector 234255039" d="M9.25 12.439L11.4318 14.8564L13.3409 11.8347L14.2955 10.3238L14.7727 9.56836" stroke="var(--background)" stroke-width="1.6" stroke-linecap="round" stroke-linejoin="round"/>
</g>

</svg>
