<svg width="24" height="24" viewBox="0 0 24 24" fill="none" xmlns="http://www.w3.org/2000/svg">
<g id="24_icon-fill/calendar">
<path id="Union" d="M8 1.5C8.55228 1.5 9 1.94772 9 2.5V5.5C9 6.05229 8.55228 6.5 8 6.5C7.44772 6.5 7 6.05229 7 5.5V2.5C7 1.94772 7.44772 1.5 8 1.5ZM16 1.5C16.5523 1.5 17 1.94772 17 2.5V5.5C17 6.05228 16.5523 6.5 16 6.5C15.4477 6.5 15 6.05228 15 5.5V2.5C15 1.94772 15.4477 1.5 16 1.5Z" fill="currentColor"/>
<rect id="Rectangle 456747344" x="3.5" y="3.5" width="17" height="17" rx="4" fill="currentColor"/>
<path id="Vector 234255988" d="M10 16.6202V8.05859H13.2337C14.4853 8.05859 15.5 9.07325 15.5 10.3249C15.5 11.5765 14.4853 12.5912 13.2337 12.5912H9M9 15.1093H13" stroke="var(--background)" stroke-width="1.2" stroke-linecap="round" stroke-linejoin="round"/>
</g>

</svg>
