<svg width="24" height="24" viewBox="0 0 24 24" fill="none" xmlns="http://www.w3.org/2000/svg">
<g id="24_icon-fill/calendar">
<path id="Union" d="M19.6748 10.7998C19.9782 10.7998 20.1303 10.7997 20.2441 10.8633C20.3246 10.9083 20.3915 10.9752 20.4365 11.0557C20.5001 11.1695 20.5 11.3216 20.5 11.625V13.9004C20.5 16.329 20.5 17.5435 19.9902 18.4541C19.6298 19.0977 19.0977 19.6298 18.4541 19.9902C17.5435 20.5 16.329 20.5 13.9004 20.5H10.0996C7.67103 20.5 6.4565 20.5 5.5459 19.9902C4.90227 19.6298 4.37022 19.0977 4.00977 18.4541C3.5 17.5435 3.5 16.329 3.5 13.9004V11.625C3.5 11.3216 3.49986 11.1695 3.56348 11.0557C3.60853 10.9752 3.67541 10.9083 3.75586 10.8633C3.86967 10.7997 4.02177 10.7998 4.3252 10.7998H19.6748ZM16 1.5C16.5523 1.5 17 1.94772 17 2.5V3.58984C17.5949 3.66023 18.0539 3.78571 18.4541 4.00977C19.0977 4.37022 19.6298 4.90227 19.9902 5.5459C20.3615 6.20916 20.4605 7.03367 20.4873 8.37109C20.4933 8.67145 20.4965 8.8223 20.4336 8.93848C20.3896 9.01965 20.3215 9.08906 20.2412 9.13477C20.1263 9.20009 19.9733 9.2002 19.668 9.2002H4.33203C4.02672 9.2002 3.87368 9.20009 3.75879 9.13477C3.67854 9.08906 3.61044 9.01965 3.56641 8.93848C3.50351 8.8223 3.50669 8.67145 3.5127 8.37109C3.53947 7.03367 3.63847 6.20916 4.00977 5.5459C4.37022 4.90227 4.90227 4.37022 5.5459 4.00977C5.94613 3.78571 6.40508 3.66023 7 3.58984V2.5C7 1.94772 7.44772 1.5 8 1.5C8.55228 1.5 9 1.94772 9 2.5V3.50488C9.33664 3.50264 9.70183 3.5 10.0996 3.5H13.9004C14.2982 3.5 14.6634 3.50264 15 3.50488V2.5C15 1.94772 15.4477 1.5 16 1.5Z" fill="#3D3C3A"/>
</g>

</svg>
