<svg width="24" height="24" viewBox="0 0 24 24" fill="none" xmlns="http://www.w3.org/2000/svg">
<g id="24_icon-fill/camera-refresh">
<path id="Rectangle 456746822" d="M2.5 11.4C2.5 9.15979 2.5 8.03969 2.93597 7.18404C3.31947 6.43139 3.93139 5.81947 4.68404 5.43597C5.53969 5 6.65979 5 8.9 5H15.1C17.3402 5 18.4603 5 19.316 5.43597C20.0686 5.81947 20.6805 6.43139 21.064 7.18404C21.5 8.03969 21.5 9.15979 21.5 11.4V13.6C21.5 15.8402 21.5 16.9603 21.064 17.816C20.6805 18.5686 20.0686 19.1805 19.316 19.564C18.4603 20 17.3402 20 15.1 20H8.9C6.65979 20 5.53969 20 4.68404 19.564C3.93139 19.1805 3.31947 18.5686 2.93597 17.816C2.5 16.9603 2.5 15.8402 2.5 13.6V11.4Z" fill="currentColor"/>
<path id="Rectangle 456746823" d="M7.81063 3.75746C7.92193 3.3123 8.32191 3 8.78078 3H15.2192C15.6781 3 16.0781 3.3123 16.1894 3.75746L17 7H7L7.81063 3.75746Z" fill="currentColor"/>
<path id="Ellipse 253666" d="M15.5 12.5C15.5 12.9596 15.4095 13.4148 15.2336 13.8394C15.0577 14.264 14.7999 14.6499 14.4749 14.9749C14.1499 15.2999 13.764 15.5577 13.3394 15.7336C12.9148 15.9095 12.4596 16 12 16" stroke="var(--background)" stroke-width="1.6" stroke-linecap="round" stroke-linejoin="round"/>
<path id="Ellipse 253667" d="M8.55317 13.1078C8.45738 12.5645 8.49136 12.0063 8.65232 11.4787C8.81329 10.9511 9.09669 10.469 9.47941 10.0717C9.86213 9.67444 10.3333 9.37326 10.8546 9.19273C11.3758 9.0122 11.9324 8.95744 12.4788 9.03291" stroke="var(--background)" stroke-width="1.6" stroke-linecap="round" stroke-linejoin="round"/>
<path id="Polygon 3" d="M9.93644 16.378C9.7062 16.1786 9.7062 15.8214 9.93644 15.622L11.6727 14.1184C11.9965 13.838 12.5 14.068 12.5 14.4964V17.5036C12.5 17.932 11.9965 18.162 11.6727 17.8816L9.93644 16.378Z" fill="var(--background)"/>
<path id="Polygon 4" d="M14.0636 8.62204C14.2938 8.82142 14.2938 9.17858 14.0636 9.37796L12.3273 10.8816C12.0035 11.162 11.5 10.932 11.5 10.5036V7.49637C11.5 7.068 12.0035 6.83797 12.3273 7.11841L14.0636 8.62204Z" fill="var(--background)"/>
</g>

</svg>
