<svg width="24" height="24" viewBox="0 0 24 24" fill="none" xmlns="http://www.w3.org/2000/svg">
<g id="24_icon-fill/card-swap">
<g id="Vector">
<path d="M20 14C20 13.4477 20.4477 13 21 13C21.5523 13 22 13.4477 22 14C22 17.3137 19.3137 20 16 20C15.4477 20 15 19.5523 15 19C15 18.4477 15.4477 18 16 18C18.2091 18 20 16.2091 20 14Z" fill="currentColor"/>
<path d="M4 10C4 10.5523 3.55228 11 3 11C2.44772 11 2 10.5523 2 10C2 6.68629 4.68629 4 8 4C8.55228 4 9 4.44772 9 5C9 5.55228 8.55228 6 8 6C5.79086 6 4 7.79086 4 10Z" fill="currentColor"/>
<path d="M13 17.7998V18.2002C13 19.8802 12.9998 20.7206 12.6729 21.3623C12.3853 21.9265 11.9265 22.3853 11.3623 22.6729C10.7206 22.9998 9.88022 23 8.2002 23H5.7998C4.11978 23 3.27941 22.9998 2.6377 22.6729C2.07347 22.3853 1.61472 21.9265 1.32715 21.3623C1.00018 20.7206 1 19.8802 1 18.2002V17.7998C1 17.7067 1 17.6601 1.00638 17.6206C1.04061 17.4083 1.20809 17.2408 1.42041 17.2066C1.45995 17.2002 1.50748 17.2002 1.60255 17.2002H12.3975C12.4925 17.2002 12.54 17.2002 12.5796 17.2066C12.7919 17.2408 12.9594 17.4083 12.9936 17.6206C13 17.6601 13 17.7067 13 17.7998ZM8.2002 13C9.88022 13 10.7206 13.0002 11.3623 13.3271C11.9265 13.6147 12.3853 14.0735 12.6729 14.6377C12.7534 14.7958 12.8136 14.9659 12.8589 15.1577C12.9159 15.3993 12.9444 15.5201 12.9022 15.6521C12.8688 15.7567 12.7774 15.8722 12.6833 15.9287C12.5645 16 12.4158 16 12.1184 16H1.88164C1.58423 16 1.43553 16 1.31672 15.9287C1.22262 15.8722 1.13119 15.7567 1.0978 15.6521C1.05565 15.5201 1.08414 15.3993 1.14113 15.1577C1.18637 14.9659 1.24661 14.7958 1.32715 14.6377C1.61472 14.0735 2.07347 13.6147 2.6377 13.3271C3.27941 13.0002 4.11978 13 5.7998 13H8.2002Z" fill="currentColor"/>
<path d="M23 5.7998V6.2002C23 7.88022 22.9998 8.72059 22.6729 9.3623C22.3853 9.92653 21.9265 10.3853 21.3623 10.6729C20.7206 10.9998 19.8802 11 18.2002 11H15.7998C14.1198 11 13.2794 10.9998 12.6377 10.6729C12.0735 10.3853 11.6147 9.92653 11.3271 9.3623C11.0002 8.72059 11 7.88022 11 6.2002V5.7998C11 5.7067 11 5.66015 11.0064 5.62061C11.0406 5.40828 11.2081 5.2408 11.4204 5.20657C11.46 5.2002 11.5075 5.2002 11.6025 5.2002H22.3975C22.4925 5.2002 22.5401 5.2002 22.5796 5.20657C22.7919 5.2408 22.9594 5.40828 22.9936 5.62061C23 5.66015 23 5.7067 23 5.7998ZM18.2002 1C19.8802 1 20.7206 1.00018 21.3623 1.32715C21.9265 1.61472 22.3853 2.07347 22.6729 2.6377C22.7534 2.79577 22.8136 2.96592 22.8589 3.15771C22.9159 3.39929 22.9444 3.52008 22.9022 3.65209C22.8688 3.75666 22.7774 3.87216 22.6833 3.92867C22.5645 4 22.4158 4 22.1184 4H11.8816C11.5842 4 11.4355 4 11.3167 3.92867C11.2226 3.87216 11.1312 3.75666 11.0978 3.65209C11.0556 3.52008 11.0841 3.39929 11.1411 3.15771C11.1864 2.96592 11.2466 2.79577 11.3271 2.6377C11.6147 2.07347 12.0735 1.61472 12.6377 1.32715C13.2794 1.00018 14.1198 1 15.7998 1H18.2002Z" fill="currentColor"/>
</g>
</g>

</svg>
