<svg width="24" height="24" viewBox="0 0 24 24" fill="none" xmlns="http://www.w3.org/2000/svg">
<g id="24_icon-fill/cardholder">
<path id="Union" d="M7.42059 4.5332C5.91436 4.5332 5.19499 4.65432 4.46363 5.04409C3.84034 5.37627 3.34602 5.86887 3.01268 6.48998C2.62155 7.21878 2.5 7.93564 2.5 9.43662V14.7385C2.5 16.2395 2.62155 16.9563 3.01268 17.6851C3.34602 18.3062 3.84034 18.7988 4.46363 19.131C5.19499 19.5208 5.91436 19.6419 7.42059 19.6419H16.5794C18.0856 19.6419 18.805 19.5208 19.5364 19.131C20.1597 18.7988 20.654 18.3062 20.9873 17.6851C21.3785 16.9563 21.5 16.2395 21.5 14.7385V9.43662C21.5 7.93564 21.3785 7.21878 20.9873 6.48998C20.654 5.86887 20.1597 5.37627 19.5364 5.04409C18.805 4.65432 18.0856 4.5332 16.5794 4.5332H7.42059Z" fill="currentColor"/>
<path id="Union_2" d="M17.5 6.54688C18.6046 6.54688 19.5 7.44879 19.5 8.56137V11.0795H14.5C14.2239 11.0795 14.0063 11.3067 13.9392 11.5746C13.7201 12.4478 12.935 13.094 12 13.094C11.065 13.094 10.2799 12.4478 10.0608 11.5746C9.99365 11.3067 9.77614 11.0795 9.5 11.0795H4.5V8.56137C4.5 7.44879 5.39543 6.54688 6.5 6.54688H17.5Z" fill="var(--background)"/>
</g>

</svg>
