<svg width="24" height="24" viewBox="0 0 24 24" fill="none" xmlns="http://www.w3.org/2000/svg">
<g id="24_icon-fill/card">
<path id="Subtract" d="M19.5 16.7002C19.5 18.2172 19.3801 18.9421 18.9932 19.6787C18.6634 20.3064 18.1741 20.8039 17.5576 21.1396C16.8341 21.5336 16.122 21.6562 14.6318 21.6562H9.36816C7.87799 21.6562 7.16594 21.5336 6.44238 21.1396C5.82593 20.8039 5.33656 20.3064 5.00684 19.6787C4.61989 18.9421 4.50001 18.2172 4.5 16.7002V8.5C4.5 8.22386 4.72386 8 5 8H19C19.2761 8 19.5 8.22386 19.5 8.5V16.7002ZM8.5 11.79C8.05843 11.7902 7.70039 12.1483 7.7002 12.5898V16.6191C7.7002 17.0609 8.05819 17.4189 8.5 17.4189C8.9418 17.4189 9.29977 17.061 9.2998 16.6191V12.5898C9.29964 12.1482 8.94171 11.7901 8.5 11.79Z" fill="currentColor"/>
<rect id="Rectangle 456746806" x="2" y="4" width="20" height="2" rx="1" fill="currentColor"/>
</g>

</svg>
