<svg width="24" height="24" viewBox="0 0 24 24" fill="none" xmlns="http://www.w3.org/2000/svg">
<g id="24_icon-fill/catalog-search">
<g id="Vector">
<path d="M3.5 7.70694C3.5 6.45138 3.5 5.8236 3.73268 5.33905C3.965 4.85523 4.35523 4.465 4.83905 4.23268C5.3236 4 5.95138 4 7.20694 4H7.34861C8.60418 4 9.23196 4 9.7165 4.23268C10.2003 4.465 10.5906 4.85523 10.8229 5.33905C11.0556 5.8236 11.0556 6.45138 11.0556 7.70694V7.84861C11.0556 9.10418 11.0556 9.73196 10.8229 10.2165C10.5906 10.7003 10.2003 11.0906 9.7165 11.3229C9.23196 11.5556 8.60418 11.5556 7.34861 11.5556H7.20694C5.95138 11.5556 5.3236 11.5556 4.83905 11.3229C4.35523 11.0906 3.965 10.7003 3.73268 10.2165C3.5 9.73196 3.5 9.10418 3.5 7.84861V7.70694Z" fill="currentColor"/>
<path d="M12.9457 7.707C12.9457 6.45143 12.9457 5.82365 13.1783 5.33911C13.4107 4.85529 13.8009 4.46506 14.2847 4.23273C14.7693 4.00005 15.397 4.00005 16.6526 4.00005H16.7943C18.0498 4.00005 18.6776 4.00005 19.1622 4.23273C19.646 4.46506 20.0362 4.85529 20.2685 5.33911C20.5012 5.82365 20.5012 6.45143 20.5012 7.707V7.84867C20.5012 9.10423 20.5012 9.73201 20.2685 10.2166C20.0362 10.7004 19.646 11.0906 19.1622 11.3229C18.6776 11.5556 18.0498 11.5556 16.7943 11.5556H16.6526C15.397 11.5556 14.7693 11.5556 14.2847 11.3229C13.8009 11.0906 13.4107 10.7004 13.1783 10.2166C12.9457 9.73201 12.9457 9.10423 12.9457 7.84867V7.707Z" fill="currentColor"/>
<path d="M3.5 17.1514C3.5 15.8958 3.5 15.2681 3.73268 14.7835C3.965 14.2997 4.35523 13.9095 4.83905 13.6771C5.3236 13.4445 5.95138 13.4445 7.20694 13.4445H7.34861C8.60418 13.4445 9.23196 13.4445 9.7165 13.6771C10.2003 13.9095 10.5906 14.2997 10.8229 14.7835C11.0556 15.2681 11.0556 15.8958 11.0556 17.1514V17.2931C11.0556 18.5486 11.0556 19.1764 10.8229 19.661C10.5906 20.1448 10.2003 20.535 9.7165 20.7673C9.23196 21 8.60418 21 7.34861 21H7.20694C5.95138 21 5.3236 21 4.83905 20.7673C4.35523 20.535 3.965 20.1448 3.73268 19.661C3.5 19.1764 3.5 18.5486 3.5 17.2931V17.1514Z" fill="currentColor"/>
<path d="M18.5 17C18.5 15.8954 17.6046 15 16.5 15C15.3954 15 14.5 15.8954 14.5 17C14.5 18.1046 15.3954 19 16.5 19C17.6046 19 18.5 18.1046 18.5 17ZM20.5 17C20.5 17.7417 20.2971 18.4358 19.9453 19.0312L21.207 20.293L21.2754 20.3691C21.5957 20.7619 21.5731 21.3409 21.207 21.707C20.8409 22.0731 20.2619 22.0957 19.8691 21.7754L19.793 21.707L18.5312 20.4453C17.9358 20.7971 17.2417 21 16.5 21C14.2909 21 12.5 19.2091 12.5 17C12.5 14.7909 14.2909 13 16.5 13C18.7091 13 20.5 14.7909 20.5 17Z" fill="currentColor"/>
</g>
</g>

</svg>
