<svg width="24" height="24" viewBox="0 0 24 24" fill="none" xmlns="http://www.w3.org/2000/svg">
<g id="24_icon-fill/sertificate">
<path id="Vector" d="M22.9119 12.0878C22.891 11.3323 22.6623 10.5967 22.2501 9.96403C21.8391 9.33253 21.2609 8.82733 20.5806 8.5069C20.8395 7.79704 20.8941 7.02872 20.7431 6.28846C20.591 5.54702 20.2357 4.86407 19.7191 4.31559C19.1734 3.79519 18.4965 3.43851 17.7604 3.28414C17.0255 3.13211 16.2627 3.18708 15.5579 3.44786C15.241 2.7614 14.7406 2.17784 14.1124 1.76386C13.4843 1.34987 12.754 1.11832 12.0028 1.09961C11.2528 1.11949 10.5248 1.3487 9.89788 1.76386C9.27092 2.17901 8.77284 2.76257 8.4582 3.44786C7.75229 3.18708 6.98717 3.12977 6.24991 3.28414C5.51265 3.43617 4.83345 3.79402 4.28776 4.31559C3.7711 4.86524 3.41814 5.54936 3.26837 6.28962C3.11744 7.02989 3.17549 7.79821 3.43556 8.5069C2.75403 8.82733 2.17351 9.33136 1.76018 9.96286C1.34686 10.5944 1.11581 11.3311 1.09375 12.0878C1.11697 12.8444 1.34686 13.58 1.76018 14.2126C2.17351 14.8441 2.75403 15.3493 3.43556 15.6686C3.17549 16.3773 3.11744 17.1456 3.26837 17.8859C3.4193 18.6273 3.7711 19.3103 4.2866 19.8599C4.83228 20.378 5.51033 20.7335 6.24527 20.8867C6.9802 21.0411 7.743 20.9849 8.44775 20.7276C8.76587 21.4129 9.26628 21.9953 9.8944 22.4105C10.5214 22.8245 11.2528 23.0548 12.0028 23.0759C12.754 23.0572 13.4843 22.8268 14.1124 22.4128C14.7406 21.9988 15.241 21.4141 15.5579 20.7288C16.2592 21.0083 17.0278 21.075 17.7674 20.9206C18.5058 20.7662 19.1838 20.3979 19.7179 19.8599C20.252 19.322 20.6189 18.639 20.7721 17.8941C20.9254 17.1491 20.8592 16.375 20.5806 15.6686C21.2609 15.3482 21.8391 14.8441 22.2513 14.2115C22.6623 13.58 22.891 12.8432 22.9119 12.0878Z" fill="currentColor"/>
<path id="Vector 234255039" d="M9 12.4715L11.3802 15.1086L13.4628 11.8122L14.5041 10.164L15.0248 9.33984" stroke="var(--background)" stroke-width="1.6" stroke-linecap="round" stroke-linejoin="round"/>
</g>

</svg>
