<svg width="24" height="24" viewBox="0 0 24 24" fill="none" xmlns="http://www.w3.org/2000/svg">
<g id="24_icon-fill/circle-plus">
<path id="Ellipse 135 (Stroke)" d="M21.5 12.0103C21.4999 17.2617 17.2376 21.6541 12 21.6541C10.9043 21.6541 9.95907 21.4565 9.28827 21.2609C9.03215 21.1862 8.81393 21.109 8.63954 21.0436C7.26642 21.6307 6.01117 21.7985 5.06467 21.8063C4.54162 21.8106 4.11118 21.7667 3.80433 21.7205C3.65091 21.6974 3.52783 21.6734 3.43873 21.6541C3.39414 21.6444 3.35733 21.6359 3.33015 21.6291C3.31672 21.6258 3.30479 21.6232 3.29579 21.6208L3.2793 21.6167L3.27792 21.6153C2.97265 21.5307 2.71903 21.3129 2.59071 21.0214C2.46253 20.7298 2.47119 20.395 2.61408 20.1105C2.92055 19.5009 3.20866 18.9641 3.40162 18.5877C3.61112 18.1789 3.73297 17.914 3.8002 17.7044C3.86013 17.5176 3.86561 17.406 3.8538 17.3071C3.84012 17.1927 3.79293 17.0192 3.64352 16.7215C2.8529 15.1466 2.50004 13.3834 2.5 12.0103C2.5 6.75872 6.76229 2.51758 12 2.51758C17.2377 2.51758 21.5 6.75872 21.5 12.0103Z" fill="#3D3C3A"/>
<path id="Vector" fill-rule="evenodd" clip-rule="evenodd" d="M12 9.98947C12.4406 9.39717 13.1317 8.99777 13.9681 9.07355C15.1775 9.18314 16 10.1464 16 11.4027C16 12.5509 15.3714 13.5179 14.6073 14.2354C13.841 14.955 12.8907 15.4711 12.1276 15.7202C12.0446 15.7473 11.9554 15.7473 11.8724 15.7202C11.1093 15.4711 10.159 14.955 9.39271 14.2354C8.62862 13.5179 8 12.5509 8 11.4027C8 10.1464 8.82246 9.18314 10.0319 9.07355C10.8683 8.99777 11.5594 9.39719 12 9.98947Z" fill="white"/>
</g>

</svg>
