<svg width="24" height="24" viewBox="0 0 24 24" fill="none" xmlns="http://www.w3.org/2000/svg">
<g id="24_icon-fill/chevron-diagonal">
<g id="Vector">
<path d="M8 12V16H12C12.5523 16 13 16.4477 13 17C13 17.5523 12.5523 18 12 18H7C6.44772 18 6 17.5523 6 17V12C6 11.4477 6.44772 11 7 11C7.55228 11 8 11.4477 8 12Z" fill="currentColor"/>
<path d="M16 12V8H12C11.4477 8 11 7.55228 11 7C11 6.44772 11.4477 6 12 6H17C17.5523 6 18 6.44772 18 7V12C18 12.5523 17.5523 13 17 13C16.4477 13 16 12.5523 16 12Z" fill="currentColor"/>
</g>
</g>

</svg>
