<svg width="24" height="24" viewBox="0 0 24 24" fill="none" xmlns="http://www.w3.org/2000/svg">
<g id="24_icon-fill/chevron-collapse">
<g id="Vector">
<path d="M9 19V15H5C4.44772 15 4 14.5523 4 14C4 13.4477 4.44772 13 5 13H10C10.5523 13 11 13.4477 11 14V19C11 19.5523 10.5523 20 10 20C9.44772 20 9 19.5523 9 19Z" fill="currentColor"/>
<path d="M15 5V9H19C19.5523 9 20 9.44772 20 10C20 10.5523 19.5523 11 19 11H14C13.4477 11 13 10.5523 13 10V5C13 4.44772 13.4477 4 14 4C14.5523 4 15 4.44772 15 5Z" fill="currentColor"/>
</g>
</g>

</svg>
