<svg width="24" height="24" viewBox="0 0 24 24" fill="none" xmlns="http://www.w3.org/2000/svg">
<g id="24_icon-fill/child">
<path id="Vector" d="M12 2.5C16.4198 2.5 20.1333 5.51858 21.1943 9.60645C21.2536 9.83465 21.4556 10 21.6914 10H22C23.1046 10 24 10.8954 24 12C24 13.1046 23.1046 14 22 14H21.6914C21.4556 14 21.2536 14.1654 21.1943 14.3936C20.1333 18.4814 16.4198 21.5 12 21.5C7.58017 21.5 3.8667 18.4814 2.80566 14.3936C2.74644 14.1654 2.54436 14 2.30859 14H2C0.895431 14 0 13.1046 0 12C0 10.8954 0.895431 10 2 10H2.30859C2.54436 10 2.74644 9.83465 2.80566 9.60645C3.568 6.66938 5.69962 4.28397 8.47852 3.17383C8.20044 3.86065 8.1288 4.61364 8.27344 5.34082C8.42006 6.07795 8.78204 6.75469 9.31348 7.28613C9.84492 7.81757 10.5217 8.17955 11.2588 8.32617C11.9959 8.47278 12.7598 8.39793 13.4541 8.11035C14.1483 7.82278 14.7416 7.3357 15.1592 6.71094C15.4046 6.34357 15.3058 5.84703 14.9385 5.60156C14.5711 5.35616 14.0746 5.45492 13.8291 5.82227C13.5874 6.18389 13.2437 6.46537 12.8418 6.63184C12.44 6.79828 11.9979 6.84255 11.5713 6.75781C11.1445 6.67292 10.752 6.46295 10.4443 6.15527C10.1367 5.8476 9.92668 5.45508 9.8418 5.02832C9.75706 4.60174 9.80133 4.15963 9.96777 3.75781C10.1342 3.35595 10.4157 3.01223 10.7773 2.77051C10.9272 2.6704 11.088 2.58965 11.2559 2.5293C11.5014 2.51027 11.7496 2.5 12 2.5Z" fill="currentColor"/>
<path id="Ellipse 253651" d="M14.8287 15.3301C14.4573 15.7015 14.0163 15.9962 13.531 16.1972C13.0457 16.3982 12.5256 16.5017 12.0003 16.5017C11.475 16.5017 10.9549 16.3982 10.4696 16.1972C9.98427 15.9962 9.54331 15.7015 9.17188 15.3301" stroke="var(--background)" stroke-width="1.6" stroke-linecap="round"/>
</g>

</svg>
