<svg width="24" height="24" viewBox="0 0 24 24" fill="none" xmlns="http://www.w3.org/2000/svg">
<g id="24_icon-fill/circle-plus">
<path id="Vector" d="M12 2.5C17.2467 2.5 21.5 6.75329 21.5 12C21.5 17.2467 17.2467 21.5 12 21.5C6.75329 21.5 2.5 17.2467 2.5 12C2.5 6.75329 6.75329 2.5 12 2.5ZM15.1016 9.01953C14.7891 8.70711 14.2821 8.70711 13.9697 9.01953L12.001 10.9873L10.0342 9.02051C9.72176 8.70809 9.21574 8.70809 8.90332 9.02051C8.5909 9.33293 8.5909 9.83895 8.90332 10.1514L10.8701 12.1191L9.02051 13.9697C8.70809 14.2821 8.70809 14.7882 9.02051 15.1006C9.33293 15.413 9.83895 15.413 10.1514 15.1006L12.001 13.25L13.8525 15.1016C14.165 15.414 14.672 15.414 14.9844 15.1016C15.2968 14.7891 15.2968 14.2821 14.9844 13.9697L13.1328 12.1182L15.1016 10.1514C15.414 9.83895 15.414 9.33195 15.1016 9.01953Z" fill="currentColor"/>
</g>

</svg>
