<svg width="24" height="24" viewBox="0 0 24 24" fill="none" xmlns="http://www.w3.org/2000/svg">
<g id="24_icon-fill/circle-zap">
<path id="Vector" d="M12 2.51758C17.2467 2.51758 21.5 6.80169 21.5 12.0864C21.5 17.3711 17.2467 21.6553 12 21.6553C6.75329 21.6553 2.5 17.3711 2.5 12.0864C2.5 6.80169 6.75329 2.51758 12 2.51758Z" fill="currentColor"/>
<path id="Vector_2" d="M15.8925 12.1823L11.721 16.9268C11.2177 17.4993 10.2853 17.0424 10.4218 16.2901L10.9383 13.4442H8.6499C8.00553 13.4442 7.66114 12.6797 8.08546 12.1913L12.209 7.44452C12.7103 6.86748 13.6475 7.32274 13.5114 8.07713L12.9971 10.9261H15.3311C15.9775 10.9261 16.3211 11.6948 15.8925 12.1823Z" fill="var(--background)"/>
</g>

</svg>
