<svg width="24" height="24" viewBox="0 0 24 24" fill="none" xmlns="http://www.w3.org/2000/svg">
<g id="24_icon-fill/circle-question">
<path id="Vector" fill-rule="evenodd" clip-rule="evenodd" d="M12 2.51758C6.75 2.51758 2.5 6.79838 2.5 12.0864C2.5 17.3644 6.75 21.6553 12 21.6553C17.24 21.6553 21.5 17.3644 21.5 12.0864C21.5 6.79838 17.24 2.51758 12 2.51758ZM9.26 9.11504C9.22 9.30642 9.2 9.50787 9.2 9.70932C9.2 10.1626 9.55 10.5252 10 10.5252C10.44 10.5252 10.79 10.1626 10.79 9.70932C10.79 9.61867 10.81 9.52801 10.83 9.42729C10.84 9.36685 10.86 9.30642 10.89 9.24598C10.92 9.17548 10.95 9.11504 10.99 9.06468C11.03 8.9841 11.09 8.92367 11.15 8.86323C11.21 8.8028 11.27 8.74236 11.34 8.70207C11.4 8.66178 11.46 8.63156 11.53 8.60135C11.59 8.57113 11.65 8.55098 11.71 8.54091C11.81 8.52077 11.9 8.51069 12 8.51069C12.09 8.51069 12.21 8.52077 12.3 8.54091C12.36 8.55098 12.42 8.57113 12.48 8.60135C12.62 8.66178 12.75 8.74236 12.85 8.85316C12.96 8.95388 13.04 9.08482 13.1 9.22584C13.16 9.36685 13.2 9.51794 13.2 9.6791C13.2 9.93091 13.1 10.1928 12.91 10.4648C12.74 10.7266 12.47 11.0087 12.12 11.3209C11.85 11.5526 11.63 11.8145 11.48 12.1066C11.39 12.2677 11.32 12.449 11.27 12.6303C11.22 12.8217 11.2 13.0332 11.2 13.2347C11.2 13.6879 11.55 14.0505 12 14.0505C12.44 14.0505 12.79 13.6879 12.79 13.2347C12.79 13.1944 12.8 13.1541 12.81 13.1138C12.84 12.9023 12.96 12.7109 13.16 12.5397C13.63 12.1368 13.98 11.744 14.24 11.3713C14.57 10.8878 14.75 10.3842 14.79 9.87048C14.79 9.81004 14.79 9.73953 14.79 9.6791C14.79 9.47765 14.77 9.2762 14.73 9.08483C14.7 8.91359 14.64 8.75243 14.58 8.59127C14.51 8.44019 14.43 8.2891 14.34 8.14809C14.24 7.98693 14.12 7.84591 13.99 7.71497C13.85 7.57395 13.71 7.45309 13.55 7.35236C13.41 7.26171 13.26 7.18113 13.11 7.11062C12.95 7.05019 12.79 6.98975 12.62 6.95953C12.43 6.91924 12.23 6.8991 12.03 6.8991C11.83 6.8991 11.59 6.91924 11.4 6.95953C11.23 6.99982 11.07 7.05019 10.91 7.12069C10.75 7.18113 10.59 7.26171 10.45 7.36243C10.29 7.46316 10.15 7.58403 10.02 7.72504C9.88 7.85598 9.76 8.00707 9.66 8.15816C9.57 8.2891 9.48 8.4704 9.42 8.62149C9.35 8.78265 9.3 8.94381 9.26 9.11504ZM13 16.2564C13 15.7024 12.55 15.2492 12 15.2492C11.44 15.2492 11 15.7024 11 16.2564C11 16.8205 11.44 17.2637 12 17.2637C12.55 17.2637 13 16.8205 13 16.2564Z" fill="currentColor"/>
</g>

</svg>
