<svg width="24" height="24" viewBox="0 0 24 24" fill="none" xmlns="http://www.w3.org/2000/svg">
<g id="24_icon-fill/circle-plus">
<path id="Subtract" d="M11.2002 7.67013C11.2002 7.90795 11.0314 8.10964 10.8044 8.18064C9.17921 8.68905 8 10.207 8 11.9998C8 14.2089 9.79086 15.9998 12 15.9998C13.7927 15.9998 15.3098 14.8205 15.8182 13.1954C15.8891 12.9684 16.0908 12.7996 16.3286 12.7996H20.9204C21.213 12.7996 21.4442 13.0502 21.4033 13.3399C20.7522 17.9519 16.7917 21.4998 12 21.4998C6.75329 21.4998 2.5 17.2465 2.5 11.9998C2.5 7.20803 6.04786 3.24759 10.6599 2.5965C10.9496 2.55561 11.2002 2.7868 11.2002 3.07933V7.67013ZM12.7998 3.07933C12.7998 2.7868 13.0505 2.55561 13.3401 2.59651C17.514 3.18578 20.814 6.48574 21.4033 10.6596C21.4442 10.9493 21.213 11.2 20.9204 11.2H16.3286C16.0908 11.2 15.8892 11.0312 15.8182 10.8042C15.428 9.55644 14.4432 8.57096 13.1956 8.18063C12.9686 8.10963 12.7998 7.90795 12.7998 7.67013V3.07933Z" fill="currentColor"/>
</g>

</svg>
