<svg width="24" height="24" viewBox="0 0 24 24" fill="none" xmlns="http://www.w3.org/2000/svg">
<g id="24_icon-fill/circle-plus">
<path id="Vector" d="M12 2.5C17.2467 2.5 21.5 6.75329 21.5 12C21.5 17.2467 17.2467 21.5 12 21.5C6.75329 21.5 2.5 17.2467 2.5 12C2.5 6.75329 6.75329 2.5 12 2.5Z" fill="currentColor"/>
<path id="Vector_2" d="M16.5328 7.46559C16.0903 7.02303 15.1512 7.28904 14.4255 8.01475L13.0001 9.44025C12.8381 9.60224 12.7614 9.62914 12.5518 9.62685L7.75661 9.5355C7.57889 9.52623 7.40617 9.58676 7.28307 9.70988L6.84249 10.1505C6.687 10.306 6.74612 10.5336 6.95427 10.6122L10.5573 11.8958L9.14416 13.6705L7.48803 13.2324C7.31728 13.1912 7.15752 13.2388 7.01498 13.3813L6.85948 13.5368C6.71694 13.6794 6.71325 13.8701 6.85037 14.0072L9.99792 17.155C10.1288 17.2859 10.3195 17.2822 10.462 17.1397L10.6175 16.9841C10.7601 16.8416 10.8139 16.6881 10.7665 16.5111L10.3346 14.861L12.103 13.4416L13.3865 17.0449C13.4713 17.2593 13.6926 17.3122 13.8481 17.1567L14.2887 16.716C14.4118 16.5929 14.4786 16.4264 14.4693 16.2487L14.378 11.4532C14.3694 11.2373 14.4026 11.1668 14.5645 11.0048L15.9899 9.57929C16.7156 8.85358 16.9753 7.90816 16.5328 7.46559Z" fill="var(--background)"/>
</g>

</svg>
