<svg width="24" height="24" viewBox="0 0 24 24" fill="none" xmlns="http://www.w3.org/2000/svg">
<g id="24_icon-fill/clock-alt">
<path id="Vector" d="M12 2.5C17.2467 2.5 21.5 6.75329 21.5 12C21.5 17.2467 17.2467 21.5 12 21.5C6.75329 21.5 2.5 17.2467 2.5 12C2.5 6.75329 6.75329 2.5 12 2.5ZM11.999 6.44824C11.5573 6.44837 11.1992 6.8063 11.1992 7.24805V11.3623L9 13.123C8.65506 13.3991 8.59902 13.9031 8.875 14.248C9.15103 14.593 9.65503 14.649 10 14.373L12.499 12.373C12.6887 12.2212 12.7988 11.991 12.7988 11.748V7.24805C12.7988 6.80622 12.4409 6.44824 11.999 6.44824Z" fill="currentColor"/>
</g>

</svg>
