<svg width="24" height="24" viewBox="0 0 24 24" fill="none" xmlns="http://www.w3.org/2000/svg">
<g id="24_icon-fill/clock">
<path id="Vector" d="M12 2.5C17.2467 2.5 21.5 6.75329 21.5 12C21.5 17.2467 17.2467 21.5 12 21.5C6.75329 21.5 2.5 17.2467 2.5 12C2.5 6.75329 6.75329 2.5 12 2.5ZM12 6.2002C11.5582 6.2002 11.2002 6.55817 11.2002 7V12C11.2002 12.281 11.3479 12.541 11.5889 12.6855L14.0889 14.1855C14.4677 14.4127 14.9583 14.2899 15.1855 13.9111C15.4127 13.5323 15.2899 13.0417 14.9111 12.8145L12.7998 11.5469V7C12.7998 6.55817 12.4418 6.2002 12 6.2002Z" fill="currentColor"/>
</g>

</svg>
