<svg width="24" height="24" viewBox="0 0 24 24" fill="none" xmlns="http://www.w3.org/2000/svg">
<g id="24_icon-fill/coins">
<g id="Vector">
<path d="M22 20C22 21.6569 19.5376 23 16.5 23C13.4624 23 11 21.6569 11 20V17.983C11 17.5723 11.4842 17.3297 11.8447 17.5264C13.1174 18.2205 14.7663 18.5996 16.5 18.5996C18.2337 18.5996 19.8826 18.2205 21.1553 17.5264C21.5158 17.3297 22 17.5723 22 17.983V20Z" fill="currentColor"/>
<path d="M2 13.983C2 13.5723 2.48425 13.3297 2.84473 13.5264C4.11736 14.2205 5.76633 14.5996 7.5 14.5996C7.94547 14.5996 8.38532 14.5744 8.81464 14.5252C9.12209 14.4901 9.40039 14.7246 9.40039 15.034V17.4059C9.40039 17.6441 9.23257 17.8506 8.99717 17.8869C8.52118 17.9604 8.01902 18 7.5 18C4.46243 18 2 16.6569 2 15V13.983Z" fill="currentColor"/>
<path d="M16.5 11C19.5376 11 22 12.3431 22 14C22 15.6569 19.5376 17 16.5 17C13.4624 17 11 15.6569 11 14C11 12.3431 13.4624 11 16.5 11Z" fill="currentColor"/>
<path d="M13 9.61026C13 9.82266 12.8652 10.0105 12.6679 10.089C12.3795 10.2037 12.1043 10.3321 11.8447 10.4736C11.024 10.9213 10.1959 11.6062 9.74582 12.5256C9.67377 12.6727 9.5446 12.7876 9.38387 12.8195C8.79622 12.9363 8.16175 13 7.5 13C4.46243 13 2 11.6569 2 10V8.98296C2 8.57235 2.48425 8.32974 2.84473 8.52637C4.11736 9.22049 5.76633 9.59961 7.5 9.59961C9.23367 9.59961 10.8826 9.22049 12.1553 8.52637C12.5158 8.32974 13 8.57235 13 8.98296V9.61026Z" fill="currentColor"/>
<path d="M7.5 2C10.5376 2 13 3.34315 13 5C13 6.65685 10.5376 8 7.5 8C4.46243 8 2 6.65685 2 5C2 3.34315 4.46243 2 7.5 2Z" fill="currentColor"/>
</g>
</g>

</svg>
