<svg width="24" height="24" viewBox="0 0 24 24" fill="none" xmlns="http://www.w3.org/2000/svg">
<g id="24_icon-fill/coin_down">
<path id="Subtract" d="M6.7998 16.377C6.7998 16.0236 7.1568 15.7806 7.49219 15.8916C8.50113 16.226 9.59064 16.4484 10.7266 16.5439C10.9916 16.5662 11.2002 16.7848 11.2002 17.0508V20.4443C11.2001 20.7319 10.958 20.9607 10.6719 20.9326C9.3645 20.8037 8.14862 20.4879 7.08789 20.0264C6.91076 19.9493 6.79995 19.7723 6.7998 19.5791V16.377ZM16.5078 15.8916C16.8432 15.7806 17.2002 16.0236 17.2002 16.377V19.5791C17.2 19.7723 17.0892 19.9493 16.9121 20.0264C15.8514 20.4879 14.6355 20.8037 13.3281 20.9326C13.042 20.9607 12.7999 20.7319 12.7998 20.4443V17.0508C12.7998 16.7848 13.0084 16.5662 13.2734 16.5439C14.4094 16.4484 15.4989 16.226 16.5078 15.8916ZM3 14.3857C3 13.9233 3.6001 13.686 3.95508 13.9824C4.20722 14.1931 4.47269 14.3906 4.74805 14.5742C4.86122 14.6497 4.97703 14.7226 5.09473 14.7939C5.16497 14.8365 5.20021 14.9179 5.2002 15V17.9131C5.19989 18.3275 4.73042 18.552 4.44141 18.2549C3.5301 17.3175 3.00004 16.2005 3 15V14.3857ZM20.0449 13.9824C20.3999 13.686 21 13.9233 21 14.3857V15C21 16.2005 20.4699 17.3175 19.5586 18.2549C19.2696 18.552 18.8001 18.3275 18.7998 17.9131V15C18.7998 14.9178 18.834 14.8365 18.9043 14.7939C19.0223 14.7226 19.1385 14.6498 19.252 14.5742C19.5273 14.3906 19.7928 14.1931 20.0449 13.9824ZM12 3C16.9706 3 21 5.68629 21 9C21 12.3137 16.9706 15 12 15C7.02944 15 3 12.3137 3 9C3 5.68629 7.02944 3 12 3ZM9.41309 6.99902C8.52223 6.99908 8.07611 8.07708 8.70605 8.70703L11.2412 11.2422C11.6317 11.6327 12.2657 11.6327 12.6562 11.2422L15.1914 8.70703C15.8213 8.0771 15.3752 6.99914 14.4844 6.99902H9.41309Z" fill="currentColor"/>
</g>

</svg>
