<svg width="24" height="24" viewBox="0 0 24 24" fill="none" xmlns="http://www.w3.org/2000/svg">
<g id="24_icon-fill/coin">
<g id="Vector">
<path d="M21 9C21 12.3137 16.9706 15 12 15C7.02944 15 3 12.3137 3 9C3 5.68629 7.02944 3 12 3C16.9706 3 21 5.68629 21 9Z" fill="currentColor"/>
<path d="M6.7998 16.3767C6.7998 16.0233 7.15691 15.7805 7.49234 15.8916C8.50135 16.226 9.59083 16.4482 10.7268 16.5437C10.9919 16.566 11.2002 16.7845 11.2002 17.0505V20.4442C11.2002 20.7319 10.9578 20.9612 10.6716 20.9329C9.36418 20.804 8.14879 20.4877 7.08807 20.0262C6.91078 19.949 6.7998 19.7721 6.7998 19.5787V16.3767Z" fill="currentColor"/>
<path d="M17.2002 19.5787C17.2002 19.7721 17.0892 19.949 16.9119 20.0262C15.8512 20.4877 14.6358 20.804 13.3284 20.9329C13.0422 20.9612 12.7998 20.7319 12.7998 20.4442V17.0505C12.7998 16.7845 13.0081 16.566 13.2732 16.5437C14.4092 16.4482 15.4986 16.226 16.5077 15.8916C16.8431 15.7805 17.2002 16.0233 17.2002 16.3767V19.5787Z" fill="currentColor"/>
<path d="M3 14.3857C3 13.9231 3.6006 13.6856 3.95556 13.9822C4.2077 14.1929 4.47269 14.3905 4.74805 14.5741C4.86129 14.6496 4.97711 14.7226 5.09489 14.794C5.16513 14.8366 5.20021 14.9177 5.2002 14.9999V17.9127C5.2002 18.3274 4.73033 18.5522 4.44123 18.2549C3.52989 17.3174 3 16.2004 3 14.9999V14.3857Z" fill="currentColor"/>
<path d="M21 14.9999C21 16.2004 20.4701 17.3174 19.5588 18.2549C19.2697 18.5522 18.7998 18.3274 18.7998 17.9127V14.9999C18.7998 14.9177 18.8339 14.8366 18.9043 14.7941C19.0223 14.7226 19.1385 14.6497 19.252 14.5741C19.5273 14.3905 19.7923 14.1929 20.0444 13.9822C20.3994 13.6856 21 13.9231 21 14.3857V14.9999Z" fill="currentColor"/>
</g>
</g>

</svg>
