<svg width="24" height="24" viewBox="0 0 24 24" fill="none" xmlns="http://www.w3.org/2000/svg">
<g id="24_icon-fill/copy">
<path id="Vector" d="M14.3047 8.82422C14.4942 8.82422 14.684 8.88876 14.8389 9.01562L14.9033 9.07324L14.9609 9.1377C15.2315 9.47182 15.2123 9.967 14.9033 10.2783L9.29395 15.9307C8.99284 16.2339 8.48673 16.2529 8.16016 15.9873L8.09766 15.9307C7.93874 15.7699 7.85059 15.5551 7.85059 15.3281C7.85067 15.1013 7.93882 14.8873 8.09766 14.7266L13.707 9.07324C13.8718 8.90727 14.0885 8.82431 14.3047 8.82422ZM14.8906 4.90137L15.1162 4.91309C16.2367 4.99857 17.2469 5.48842 17.9785 6.30859C18.7032 7.12202 19.1015 8.17829 19.1016 9.28027C19.1016 10.4618 18.6429 11.5744 17.8096 12.415L16.1143 14.124C15.785 14.4552 15.2469 14.4558 14.917 14.124C14.5879 13.7921 14.5879 13.2518 14.917 12.9199L16.6123 11.2109L16.7939 11.0088C17.1929 10.5207 17.4106 9.91719 17.4111 9.28125C17.4111 8.59886 17.165 7.94711 16.7197 7.44727C16.3125 6.99014 15.7528 6.7032 15.1211 6.625L14.8467 6.60449C14.8181 6.60394 14.791 6.60352 14.7637 6.60352C13.9642 6.60358 13.1877 6.92476 12.624 7.49219L11.0791 9.0498C10.7698 9.36138 10.2786 9.38019 9.94629 9.1084L9.88184 9.0498C9.72292 8.88903 9.63477 8.67426 9.63477 8.44727C9.63481 8.22035 9.72298 8.00643 9.88184 7.8457L11.4268 6.28809C12.2792 5.42959 13.4475 4.93351 14.6494 4.90137H14.8906ZM5.5918 15.7139C5.59187 16.4012 5.83756 17.0547 6.28125 17.5537C6.74489 18.075 7.40734 18.374 8.14746 18.3945C8.96358 18.4078 9.78106 18.0954 10.3604 17.5117L11.915 15.9443C12.2232 15.6332 12.7154 15.6133 13.0479 15.8857L13.1123 15.9443C13.441 16.2768 13.4407 16.8164 13.1113 17.1484L11.5566 18.7168C10.6502 19.6302 9.40216 20.1325 8.10156 20.0986C6.89405 20.0653 5.79872 19.5659 5.02051 18.6904C4.29755 17.8775 3.90039 16.8232 3.90039 15.7207C3.88997 14.5399 4.34652 13.4241 5.18555 12.5791L6.87988 10.8711C7.03957 10.7102 7.25265 10.6211 7.47852 10.6211C7.67624 10.6211 7.86389 10.69 8.01465 10.8145L8.07715 10.8711C8.23607 11.0319 8.32422 11.2466 8.32422 11.4736C8.32412 11.6721 8.25704 11.861 8.13379 12.0127L8.07715 12.0752L6.38184 13.7832C5.86562 14.3034 5.58545 14.9898 5.5918 15.7129V15.7139Z" fill="currentColor" stroke="currentColor" stroke-width="0.2"/>
</g>

</svg>
