<svg width="24" height="24" viewBox="0 0 24 24" fill="none" xmlns="http://www.w3.org/2000/svg">
<g id="24_icon-fill/cross">
<path id="Vector" d="M16.2929 6.06242C16.6834 5.6719 17.3164 5.67191 17.707 6.06242C18.0975 6.45295 18.0975 7.08596 17.707 7.47649L13.414 11.7695L17.707 16.0624C18.0975 16.4529 18.0975 17.086 17.707 17.4765C17.3164 17.867 16.6834 17.867 16.2929 17.4765L11.9999 13.1835L7.70696 17.4765C7.31643 17.867 6.68342 17.867 6.29289 17.4765C5.90238 17.086 5.90237 16.4529 6.29289 16.0624L10.5859 11.7695L6.29289 7.47649C5.90237 7.08596 5.90237 6.45295 6.29289 6.06242C6.68342 5.6719 7.31643 5.6719 7.70696 6.06242L11.9999 10.3554L16.2929 6.06242Z" fill="#3D3C3A"/>
</g>

</svg>
