<svg width="24" height="24" viewBox="0 0 24 24" fill="none" xmlns="http://www.w3.org/2000/svg">
<g id="24_icon-fill/exchange" clip-path="url(#clip0_0_1)">
<path id="Ellipse 253694" d="M20.8161 8.52149C20.2134 7.00935 19.2373 5.67728 17.9804 4.65152" stroke="currentColor" stroke-width="2" stroke-linecap="round"/>
<path id="Ellipse 253696" d="M3.18391 8.52149C3.7866 7.00935 4.76268 5.67728 6.01963 4.65152" stroke="currentColor" stroke-width="2" stroke-linecap="round"/>
<path id="Ellipse 253695" d="M10.0704 20.4281C9.534 20.3021 8.9987 20.6374 8.87475 21.1769C8.7508 21.7164 9.08515 22.2559 9.62154 22.3819L9.84596 21.405L10.0704 20.4281ZM14.8965 22.2494C15.4254 22.0968 15.7302 21.5413 15.5774 21.0087C15.4245 20.4761 14.8718 20.168 14.343 20.3206L14.6198 21.285L14.8965 22.2494ZM9.84596 21.405L9.62154 22.3819C11.3627 22.7909 13.1784 22.7452 14.8965 22.2494L14.6198 21.285L14.343 20.3206C12.9508 20.7224 11.4801 20.7592 10.0704 20.4281L9.84596 21.405Z" fill="currentColor"/>
<path id="Vector 234255989" d="M16.5 15.1094L21.5 15.1094" stroke="currentColor" stroke-width="1.6" stroke-linecap="round"/>
<path id="Vector 234255990" d="M19 15.1094V19.642" stroke="currentColor" stroke-width="1.6" stroke-linecap="round"/>
<path id="Vector 234255991" d="M16.5 12.5898L21.5 12.5898" stroke="currentColor" stroke-width="1.6" stroke-linecap="round"/>
<path id="Vector 234255986" d="M2.5 13.0938L5 16.1155M5 16.1155L7.5 13.0938M5 16.1155L5 19.8423" stroke="currentColor" stroke-width="1.6" stroke-linecap="round"/>
<path id="Vector 234255987" d="M2.60156 17.4258H7.40156" stroke="currentColor" stroke-width="1.6" stroke-linecap="round"/>
<path id="Vector 234255988" d="M11 9.5683V2.51758H13.1017C14.1501 2.51758 15 3.36746 15 4.41585C15 5.46424 14.1501 6.31412 13.1017 6.31412H10M10 8.48358H13" stroke="currentColor" stroke-width="1.6" stroke-linecap="round" stroke-linejoin="round"/>
</g>

</svg>
