<svg width="24" height="24" viewBox="0 0 24 24" fill="none" xmlns="http://www.w3.org/2000/svg">
<g id="24_icon-fill/dislike">
<g id="Vector">
<path fill-rule="evenodd" clip-rule="evenodd" d="M12.4147 20.1347C14.6695 15.8406 15.7779 15.917 16.7348 14.9627C17.6822 14.0085 17.6822 13.0065 17.6822 11.4224V7.46231C17.6822 5.27708 15.8821 3.51172 13.6747 3.51172H8.28412C6.4462 3.51172 4.84512 4.7427 4.39985 6.50806L3.08298 11.6896C2.60929 13.56 4.04931 15.373 6.00093 15.373H10.1978C10.1978 15.373 9.20309 17.0621 9.20309 19.0946C9.20309 21.2035 11.4579 21.9478 12.4147 20.1347Z" fill="currentColor"/>
<path d="M18.998 13.0941V5.53977C18.998 4.98348 19.4457 4.53252 19.998 4.53252C20.5503 4.53252 20.998 4.98348 20.998 5.53977V13.0941C20.998 13.6504 20.5503 14.1014 19.998 14.1014C19.4457 14.1014 18.998 13.6504 18.998 13.0941Z" fill="currentColor"/>
</g>
</g>

</svg>
