<svg width="24" height="24" viewBox="0 0 24 24" fill="none" xmlns="http://www.w3.org/2000/svg">
<g id="24_icon-fill/document-alt_5">
<path id="Vector" d="M14.6318 2.5C16.122 2.5 16.8341 2.62156 17.5576 3.0127C18.1741 3.34603 18.6634 3.84066 18.9932 4.46387C19.38 5.19511 19.5 5.9149 19.5 7.4209V16.5791C19.5 18.0851 19.38 18.8049 18.9932 19.5361C18.6634 20.1593 18.1741 20.654 17.5576 20.9873C16.8341 21.3784 16.122 21.5 14.6318 21.5H9.36816C7.87799 21.5 7.16594 21.3784 6.44238 20.9873C5.82586 20.654 5.33658 20.1593 5.00684 19.5361C4.62002 18.8049 4.5 18.0851 4.5 16.5791V7.4209C4.5 5.9149 4.62002 5.19511 5.00684 4.46387C5.33658 3.84066 5.82586 3.34603 6.44238 3.0127C7.16594 2.62156 7.87799 2.5 9.36816 2.5H14.6318ZM8 16.3232C7.55823 16.3232 7.20027 16.6813 7.2002 17.123C7.20017 17.5649 7.55817 17.9228 8 17.9229H12C12.4418 17.9229 12.7998 17.5649 12.7998 17.123C12.7996 16.6814 12.4417 16.3233 12 16.3232H8ZM8 12.7002C7.55817 12.7002 7.2002 13.0582 7.2002 13.5C7.2002 13.9418 7.55817 14.2998 8 14.2998H16C16.4418 14.2998 16.7998 13.9418 16.7998 13.5C16.7998 13.0582 16.4418 12.7002 16 12.7002H8ZM12 6.54688C10.8955 6.54688 10 7.44898 10 8.56152C10 9.6741 10.8954 10.5762 12 10.5762C13.1046 10.5762 14 9.6741 14 8.56152C14 7.44898 13.1045 6.54688 12 6.54688Z" fill="currentColor"/>
</g>

</svg>
