<svg width="24" height="24" viewBox="0 0 24 24" fill="none" xmlns="http://www.w3.org/2000/svg">
<g id="24_icon-fill/document-chart">
<path id="Vector" d="M11.8486 2.5C12.827 2.5 13.317 2.49983 13.7773 2.61035C14.1854 2.70835 14.5758 2.87059 14.9336 3.08984C15.337 3.33719 15.6835 3.68348 16.375 4.375L17.625 5.625C18.3165 6.31651 18.6628 6.66296 18.9102 7.06641C19.1294 7.42419 19.2917 7.81464 19.3896 8.22266C19.5002 8.68301 19.5 9.173 19.5 10.1514V15.0996C19.5 17.3398 19.5004 18.4608 19.0645 19.3164C18.681 20.0689 18.0689 20.681 17.3164 21.0645C16.4608 21.5004 15.3398 21.5 13.0996 21.5H10.9004C8.66018 21.5 7.53924 21.5004 6.68359 21.0645C5.93109 20.681 5.31902 20.0689 4.93555 19.3164C4.49957 18.4608 4.5 17.3398 4.5 15.0996V8.90039C4.5 6.66018 4.49957 5.53924 4.93555 4.68359C5.31902 3.93109 5.93109 3.31902 6.68359 2.93555C7.53924 2.49957 8.66018 2.5 10.9004 2.5H11.8486ZM15.5635 11.5205C15.25 11.2092 14.7439 11.211 14.4326 11.5244L13 12.9668L11.5674 11.5244C11.4172 11.3732 11.2131 11.2881 11 11.2881C10.8135 11.2881 10.6338 11.3531 10.4912 11.4707L10.4326 11.5244L8.43262 13.5391C8.12133 13.8526 8.12299 14.3586 8.43652 14.6699C8.75001 14.9812 9.25608 14.9794 9.56738 14.666L11 13.2227L12.4326 14.666C12.5828 14.8172 12.7869 14.9023 13 14.9023C13.2131 14.9023 13.4172 14.8172 13.5674 14.666L15.5674 12.6514C15.8786 12.3379 15.8769 11.8318 15.5635 11.5205Z" fill="currentColor"/>
</g>

</svg>
