<svg width="24" height="24" viewBox="0 0 24 24" fill="none" xmlns="http://www.w3.org/2000/svg">
<g id="24_icon-fill/eye">
<path id="Ellipse 253646" d="M21.815 10.7821C22.2863 11.534 22.2863 12.466 21.815 13.2179C20.4838 15.342 17.2121 19.5 12 19.5C6.78791 19.5 3.51624 15.342 2.18499 13.2179C1.71372 12.466 1.71372 11.534 2.18499 10.7821C3.51624 8.65805 6.78791 4.5 12 4.5C17.2121 4.5 20.4838 8.65805 21.815 10.7821Z" fill="currentColor"/>
<path id="Vector" d="M12 9C13.6569 9 15 10.3431 15 12C15 13.6569 13.6569 15 12 15C10.3432 14.9999 9 13.6568 9 12C9 10.3432 10.3432 9.00012 12 9Z" fill="var(--background)"/>
</g>

</svg>
