<svg width="24" height="24" viewBox="0 0 24 24" fill="none" xmlns="http://www.w3.org/2000/svg">
<g id="24_icon-fill/file-check">
<path id="Vector" d="M11.8486 2.5C12.827 2.5 13.317 2.49983 13.7773 2.61035C14.1854 2.70835 14.5758 2.87059 14.9336 3.08984C15.337 3.33719 15.6835 3.68348 16.375 4.375L17.625 5.625C18.3165 6.31651 18.6628 6.66296 18.9102 7.06641C19.1294 7.42419 19.2917 7.81464 19.3896 8.22266C19.5002 8.68301 19.5 9.173 19.5 10.1514V15.0996C19.5 17.3398 19.5004 18.4608 19.0645 19.3164C18.681 20.0689 18.0689 20.681 17.3164 21.0645C16.4608 21.5004 15.3398 21.5 13.0996 21.5H10.9004C8.66018 21.5 7.53924 21.5004 6.68359 21.0645C5.93109 20.681 5.31902 20.0689 4.93555 19.3164C4.49957 18.4608 4.5 17.3398 4.5 15.0996V8.90039C4.5 6.66018 4.49957 5.53924 4.93555 4.68359C5.31902 3.93109 5.93109 3.31902 6.68359 2.93555C7.53924 2.49957 8.66018 2.5 10.9004 2.5H11.8486Z" fill="currentColor"/>
<path id="Vector 234255039" d="M9.25 13.4468L11.4318 15.8642L13.3409 12.8425L14.2955 11.3316L14.7727 10.5762" stroke="var(--background)" stroke-width="1.6" stroke-linecap="round" stroke-linejoin="round"/>
</g>

</svg>
