<svg width="24" height="24" viewBox="0 0 24 24" fill="none" xmlns="http://www.w3.org/2000/svg">
<g id="24_icon-fill/prime">
<path id="Vector" d="M5.54111 4.36719H17.9012C19.0635 4.36719 19.6399 4.36719 19.9801 4.61466C20.273 4.83357 20.462 5.15719 20.4998 5.51887C20.5471 5.93767 20.2541 6.44213 19.6777 7.45104L17.0224 12.0863L19.6777 16.7121C20.2541 17.721 20.5471 18.2255 20.4998 18.6443C20.462 19.006 20.273 19.3296 19.9801 19.5485C19.6399 19.796 19.0635 19.796 17.9012 19.796H5.54111C4.82294 19.796 4.46386 19.796 4.18982 19.6532C3.95358 19.5295 3.75514 19.3296 3.63229 19.0916C3.5 18.8156 3.5 18.4539 3.5 17.7401V6.43261C3.5 5.70924 3.5 5.34755 3.63229 5.07152C3.75514 4.83357 3.95358 4.63369 4.18982 4.50996C4.46386 4.36719 4.82294 4.36719 5.54111 4.36719Z" fill="currentColor"/>
</g>

</svg>
