<svg width="24" height="24" viewBox="0 0 24 24" fill="none" xmlns="http://www.w3.org/2000/svg">
<g id="24_icon-fill/folder-open">
<path id="Vector 234255951" d="M12 5H16.8C17.9201 5 18.4802 5 18.908 5.21799C19.2843 5.40973 19.5903 5.71569 19.782 6.09202C20 6.51984 20 7.0799 20 8.2V9H9.21081C8.24773 9 7.7662 9 7.37564 9.17521C7.03137 9.32965 6.73781 9.57833 6.52887 9.89253C6.29184 10.249 6.21267 10.724 6.05435 11.6739L5.14553 17.1268C5.06935 17.5839 5.42183 18 5.88523 18C6.24269 18 6.55046 17.7477 6.62057 17.3972L7.74276 11.7862C7.83439 11.328 7.88021 11.099 7.99982 10.9276C8.1053 10.7765 8.25048 10.6575 8.41934 10.5837C8.61083 10.5 8.84445 10.5 9.31169 10.5H20.8169C21.5554 10.5 21.9247 10.5 22.1693 10.6543C22.3834 10.7895 22.5383 11.0008 22.6027 11.2457C22.6762 11.5254 22.565 11.8775 22.3426 12.5818L21.0593 16.6454C20.6788 17.8503 20.4886 18.4528 20.1239 18.8988C19.802 19.2927 19.3851 19.5981 18.9126 19.7866C18.3775 20 17.7457 20 16.4821 20H7.8C6.11984 20 5.27976 20 4.63803 19.673C4.07354 19.3854 3.6146 18.9265 3.32698 18.362C3 17.7202 3 16.8802 3 15.2V12V7.8C3 6.11984 3 5.27976 3.32698 4.63803C3.6146 4.07354 4.07354 3.6146 4.63803 3.32698C5.27976 3 6.11984 3 7.8 3H8.67452C9.1637 3 9.40829 3 9.63846 3.05526C9.84254 3.10425 10.0376 3.18506 10.2166 3.29472C10.4184 3.4184 10.5914 3.59135 10.9373 3.93726L12 5Z" fill="currentColor"/>
</g>

</svg>
