<svg width="24" height="24" viewBox="0 0 24 24" fill="none" xmlns="http://www.w3.org/2000/svg">
<g id="24_icon-fill/globe_alt">
<path id="Subtract" d="M8.27734 16.2373C8.62321 17.471 9.08468 18.5243 9.5459 19.3809C10.0075 20.2381 10.47 20.9009 10.8213 21.3525C10.8435 21.381 10.8664 21.4077 10.8877 21.4346C8.27728 21.13 5.99154 19.7687 4.46777 17.7881C5.59746 17.0859 6.89563 16.5691 8.27734 16.2373ZM15.7217 16.2373C17.1035 16.569 18.4015 17.086 19.5312 17.7881C18.0073 19.7687 15.7219 21.1303 13.1113 21.4346C13.1327 21.4076 13.1564 21.3812 13.1787 21.3525C13.53 20.9009 13.9925 20.2381 14.4541 19.3809C14.9153 18.5243 15.3758 17.4708 15.7217 16.2373ZM12 15.8018C12.7198 15.8018 13.4361 15.8504 14.1396 15.9434C13.8344 16.9906 13.4414 17.8886 13.0459 18.623C12.6705 19.3202 12.294 19.8673 12 20.2559C11.706 19.8673 11.3295 19.3202 10.9541 18.623C10.5586 17.8885 10.1646 16.9907 9.85938 15.9434C10.5632 15.8503 11.2799 15.8018 12 15.8018ZM3.60156 7.55957C4.90361 8.37283 6.3789 8.96003 7.92676 9.3291C7.78459 10.1582 7.7002 11.0503 7.7002 12.002C7.7002 12.9532 7.78468 13.845 7.92676 14.6738C6.379 15.0429 4.90357 15.6302 3.60156 16.4434C2.89909 15.1178 2.5 13.6067 2.5 12.002C2.5 10.3969 2.89884 8.88533 3.60156 7.55957ZM20.3975 7.55957C21.1003 8.88543 21.5 10.3968 21.5 12.002C21.5 13.6068 21.1001 15.1177 20.3975 16.4434C19.0954 15.6303 17.6201 15.0428 16.0723 14.6738C16.2144 13.8449 16.2998 12.9533 16.2998 12.002C16.2998 11.0502 16.2145 10.1583 16.0723 9.3291C17.6202 8.96011 19.0953 8.37277 20.3975 7.55957ZM14.5 9.625C14.625 10.3626 14.7002 11.1557 14.7002 12.002C14.7002 12.8478 14.6249 13.6406 14.5 14.3779C13.6724 14.2611 12.8344 14.2021 12 14.2021C11.1653 14.2021 10.3269 14.261 9.49902 14.3779C9.37412 13.6407 9.2998 12.8478 9.2998 12.002C9.2998 11.1558 9.37402 10.3625 9.49902 9.625C10.327 9.74192 11.1652 9.80176 12 9.80176C12.8344 9.80176 13.6724 9.74182 14.5 9.625ZM12 3.74707C12.294 4.13566 12.6703 4.68334 13.0459 5.38086C13.4413 6.11512 13.8344 7.01273 14.1396 8.05957C13.4361 8.15257 12.7199 8.20215 12 8.20215C11.2798 8.20215 10.5633 8.15265 9.85938 8.05957C10.1646 7.01262 10.5587 6.11518 10.9541 5.38086C11.3297 4.68334 11.706 4.13566 12 3.74707ZM10.8213 2.65137C10.47 3.10305 10.0075 3.7658 9.5459 4.62305C9.08479 5.47941 8.62318 6.53236 8.27734 7.76562C6.89554 7.43378 5.5975 6.91714 4.46777 6.21484C5.99157 4.2345 8.27751 2.87282 10.8877 2.56836C10.8663 2.59539 10.8436 2.62265 10.8213 2.65137ZM13.1113 2.56836C15.7217 2.87258 18.0073 4.23451 19.5312 6.21484C18.4014 6.91707 17.1035 7.43386 15.7217 7.76562C15.3758 6.53247 14.9152 5.47935 14.4541 4.62305C13.9925 3.7658 13.53 3.10305 13.1787 2.65137C13.1562 2.62249 13.1329 2.59554 13.1113 2.56836Z" fill="currentColor"/>
</g>

</svg>
