<svg width="24" height="24" viewBox="0 0 24 24" fill="none" xmlns="http://www.w3.org/2000/svg">
<g id="24_icon-fill/gosuslugi">
<path id="Subtract" d="M11.1074 2.22C11.6949 2.08552 12.3051 2.08552 12.8926 2.22C13.4787 2.35424 14.0327 2.6737 15.1396 3.31278L17.9531 4.93778C19.0603 5.577 19.6141 5.89667 20.0234 6.33719C20.4337 6.7787 20.7387 7.30709 20.916 7.88309C21.0928 8.45788 21.0938 9.09776 21.0938 10.3763V13.6243C21.0938 14.9028 21.0928 15.5427 20.916 16.1175C20.7387 16.6935 20.4337 17.2219 20.0234 17.6634C19.6141 18.1039 19.0603 18.4236 17.9531 19.0628L15.1396 20.6878C14.0327 21.3269 13.4787 21.6463 12.8926 21.7806C12.3051 21.915 11.6949 21.915 11.1074 21.7806C10.5213 21.6463 9.96727 21.3269 8.86035 20.6878L6.04688 19.0628C4.93971 18.4236 4.38592 18.1039 3.97656 17.6634C3.56635 17.2219 3.26127 16.6935 3.08398 16.1175C2.90716 15.5427 2.90625 14.9028 2.90625 13.6243V10.3763C2.90625 9.09777 2.90716 8.45788 3.08398 7.88309C3.26127 7.30709 3.56635 6.7787 3.97656 6.33719C4.38592 5.89667 4.93971 5.577 6.04688 4.93778L8.86035 3.31278C9.96727 2.6737 10.5213 2.35424 11.1074 2.22ZM6.5 13.2005C6.05817 13.2005 5.7002 13.5584 5.7002 14.0003C5.7002 14.4421 6.05817 14.8001 6.5 14.8001H13C13.4418 14.8001 13.7998 14.4421 13.7998 14.0003C13.7998 13.5584 13.4418 13.2005 13 13.2005H6.5ZM6.5 9.20047C6.05817 9.20047 5.7002 9.55845 5.7002 10.0003C5.7002 10.4421 6.05817 10.8001 6.5 10.8001H10C10.4418 10.8001 10.7998 10.4421 10.7998 10.0003C10.7998 9.55845 10.4418 9.20047 10 9.20047H6.5Z" fill="currentColor"/>
</g>

</svg>
