<svg width="24" height="24" viewBox="0 0 24 24" fill="none" xmlns="http://www.w3.org/2000/svg">
<g id="24_icon-fill/archive">
<path id="Rectangle 456746791" d="M3.5 9.9C3.5 7.65979 3.5 6.53969 3.93597 5.68404C4.31947 4.93139 4.93139 4.31947 5.68404 3.93597C6.53969 3.5 7.65979 3.5 9.9 3.5H14.1C16.3402 3.5 17.4603 3.5 18.316 3.93597C19.0686 4.31947 19.6805 4.93139 20.064 5.68404C20.5 6.53969 20.5 7.65979 20.5 9.9V14.1C20.5 16.3402 20.5 17.4603 20.064 18.316C19.6805 19.0686 19.0686 19.6805 18.316 20.064C17.4603 20.5 16.3402 20.5 14.1 20.5H9.9C7.65979 20.5 6.53969 20.5 5.68404 20.064C4.93139 19.6805 4.31947 19.0686 3.93597 18.316C3.5 17.4603 3.5 16.3402 3.5 14.1V9.9Z" fill="currentColor"/>
<path id="Union" d="M15.2998 5.5C16.4199 5.5 16.9804 5.49979 17.4082 5.71777C17.7845 5.90951 18.0905 6.21554 18.2822 6.5918C18.5002 7.01962 18.5 7.58009 18.5 8.7002V11.9004C18.5 12.4602 18.4996 12.7402 18.3906 12.9541C18.2948 13.1421 18.1421 13.2948 17.9541 13.3906C17.7402 13.4996 17.4602 13.5 16.9004 13.5H14.5C14.2239 13.5 14.0064 13.7273 13.9383 13.9949C13.718 14.8601 12.9337 15.5 12 15.5C11.0663 15.5 10.282 14.8601 10.0617 13.9949C9.99359 13.7273 9.77614 13.5 9.5 13.5H7.09961C6.53982 13.5 6.25976 13.4996 6.0459 13.3906C5.85793 13.2948 5.70522 13.1421 5.60938 12.9541C5.50041 12.7402 5.5 12.4602 5.5 11.9004V8.7002C5.5 7.58009 5.49979 7.01962 5.71777 6.5918C5.90951 6.21554 6.21554 5.90951 6.5918 5.71777C7.01962 5.49979 7.58009 5.5 8.7002 5.5H15.2998Z" fill="var(--background)"/>
</g>

</svg>
