<svg width="24" height="24" viewBox="0 0 24 24" fill="none" xmlns="http://www.w3.org/2000/svg">
<g id="24_icon-fill/ingot">
<path id="Vector" d="M19.5063 8.08129C19.1699 6.79964 19.0017 6.15882 18.6386 5.68221C18.3183 5.26163 17.8925 4.93318 17.4044 4.73012C16.8512 4.5 16.1887 4.5 14.8636 4.5H9.14385C7.81878 4.5 7.15625 4.5 6.60308 4.73012C6.11496 4.93318 5.68916 5.26163 5.36881 5.68221C5.00579 6.15882 4.83757 6.79964 4.50114 8.08129L3.08364 13.4813C2.54587 15.5299 2.27698 16.5543 2.51946 17.3623C2.73194 18.0703 3.19838 18.675 3.82928 19.0603C4.54925 19.5 5.60828 19.5 7.72635 19.5H16.2811C18.3992 19.5 19.4582 19.5 20.1782 19.0603C20.8091 18.675 21.2755 18.0703 21.488 17.3623C21.7305 16.5543 21.4616 15.5299 20.9238 13.4813L19.5063 8.08129Z" fill="currentColor"/>
</g>

</svg>
