<svg width="24" height="24" viewBox="0 0 24 24" fill="none" xmlns="http://www.w3.org/2000/svg">
<g id="24_icon-fill/ingot-stack">
<g id="Vector">
<path d="M19.0037 20.1447C19.556 20.1447 20.0037 20.5956 20.0037 21.1519C20.0037 21.7082 19.556 22.1592 19.0037 22.1592H5.00373C4.45144 22.1592 4.00373 21.7082 4.00373 21.1519C4.00373 20.5956 4.45144 20.1447 5.00373 20.1447H19.0037Z" fill="currentColor"/>
<path d="M19.5063 6.62873C19.1699 5.33779 19.0017 4.69232 18.6386 4.21226C18.3183 3.78864 17.8925 3.45781 17.4044 3.25327C16.8512 3.02148 16.1887 3.02148 14.8636 3.02148H9.14385C7.81878 3.02148 7.15625 3.02148 6.60308 3.25327C6.11496 3.45781 5.68916 3.78864 5.36881 4.21226C5.00579 4.69232 4.83757 5.33779 4.50114 6.62873L3.08364 12.0679C2.54587 14.1314 2.27698 15.1631 2.51946 15.977C2.73194 16.6902 3.19838 17.2992 3.82928 17.6873C4.54925 18.1302 5.60828 18.1302 7.72635 18.1302H16.2811C18.3992 18.1302 19.4582 18.1302 20.1782 17.6873C20.8091 17.2992 21.2755 16.6902 21.488 15.977C21.7305 15.1631 21.4616 14.1314 20.9238 12.0679L19.5063 6.62873Z" fill="currentColor"/>
</g>
</g>

</svg>
