<svg width="24" height="24" viewBox="0 0 24 24" fill="none" xmlns="http://www.w3.org/2000/svg">
<g id="24_icon-fill/limit-50">
<path id="Ellipse 253690" d="M14 14.1021C14 15.2146 13.1046 16.1166 12 16.1166C10.8954 16.1166 10 15.2146 10 14.1021C10 13.3319 10.9584 10.7319 11.5483 9.20459C11.7101 8.78573 12.2899 8.78573 12.4517 9.20459C13.0416 10.7319 14 13.3319 14 14.1021Z" fill="currentColor"/>
<path id="Ellipse 253687" d="M5.28249 19.8604C4.08816 18.6574 3.23384 17.1555 2.80755 15.5093C2.38126 13.8631 2.39841 12.1322 2.85723 10.4949C3.31605 8.85759 4.19995 7.37311 5.41787 6.19437C6.63579 5.01564 8.14368 4.18527 9.78622 3.78882" stroke="currentColor" stroke-width="2" stroke-linecap="round" stroke-linejoin="round"/>
<path id="Ellipse 253691" d="M18.7175 19.8604C19.9118 18.6574 20.7662 17.1555 21.1924 15.5093C21.6187 13.8631 21.6016 12.1322 21.1428 10.4949C20.684 8.85759 19.8001 7.37311 18.5821 6.19437C17.3642 5.01564 15.8563 4.18527 14.2138 3.78882" stroke="currentColor" stroke-width="2" stroke-linecap="round" stroke-linejoin="round"/>
</g>

</svg>
