<svg width="24" height="24" viewBox="0 0 24 24" fill="none" xmlns="http://www.w3.org/2000/svg">
<g id="24_icon-fill/limit-full">
<path id="Ellipse 253687" d="M2.5 12.0864C2.5 13.979 3.05716 15.829 4.10104 17.4026C5.14491 18.9762 6.62861 20.2026 8.36451 20.9269C10.1004 21.6511 12.0105 21.8406 13.8534 21.4714C15.6962 21.1022 17.3889 20.1908 18.7175 18.8526C20.0461 17.5144 20.9509 15.8094 21.3175 13.9532C21.684 12.097 21.4959 10.1731 20.7769 8.42458C20.0578 6.6761 18.8402 5.18166 17.2779 4.13022C15.7156 3.07878 13.8789 2.51758 12 2.51758V5.03569" stroke="currentColor" stroke-width="2" stroke-linecap="round" stroke-linejoin="round"/>
<path id="Ellipse 253690" d="M13.3679 10.6198C14.149 11.4065 14.149 12.682 13.3679 13.4687C12.5869 14.2554 11.3206 14.2554 10.5395 13.4687C9.9982 12.9235 8.84861 10.3971 8.19391 8.89759C8.01429 8.48621 8.4213 8.07625 8.82972 8.25717C10.3184 8.91661 12.8266 10.0745 13.3679 10.6198Z" fill="currentColor"/>
</g>

</svg>
