<svg width="24" height="24" viewBox="0 0 24 24" fill="none" xmlns="http://www.w3.org/2000/svg">
<g id="24_icon-fill/limit-100">
<path id="Ellipse 253687" d="M5.28249 19.8604C3.95389 18.5222 3.0491 16.8172 2.68254 14.961C2.31598 13.1048 2.50411 11.1809 3.22314 9.43239C3.94218 7.68392 5.15982 6.18947 6.72208 5.13803C8.28435 4.08659 10.1211 3.52539 12 3.52539C13.8789 3.52539 15.7156 4.08659 17.2779 5.13803C18.8402 6.18947 20.0578 7.68392 20.7769 9.43239C21.4959 11.1809 21.684 13.1048 21.3175 14.961C20.9509 16.8172 20.0461 18.5222 18.7175 19.8604" stroke="currentColor" stroke-width="2" stroke-linecap="round" stroke-linejoin="round"/>
<path id="Ellipse 253690" d="M10.783 14.75C9.87816 14.1118 9.65826 12.8557 10.2918 11.9443C10.9254 11.033 12.1725 10.8115 13.0773 11.4496C13.7046 11.8921 15.2733 14.1807 16.1764 15.5427C16.4242 15.9164 16.0949 16.3901 15.6615 16.2834C14.0819 15.8944 11.4103 15.1924 10.783 14.75Z" fill="currentColor"/>
</g>

</svg>
