<svg width="24" height="24" viewBox="0 0 24 24" fill="none" xmlns="http://www.w3.org/2000/svg">
<g id="24_icon-fill/mail">
<path id="VEctor" d="M15.0996 4.53125C17.3398 4.53125 18.4608 4.53082 19.3164 4.9668C20.0689 5.35027 20.681 5.96234 21.0645 6.71484C21.5004 7.57049 21.5 8.69143 21.5 10.9316V13.2402C21.5 15.4802 21.5004 16.6005 21.0645 17.4561C20.681 18.2086 20.0689 18.8206 19.3164 19.2041C18.4608 19.6401 17.3398 19.6396 15.0996 19.6396H8.90039C6.66018 19.6396 5.53924 19.6401 4.68359 19.2041C3.93108 18.8206 3.31899 18.2086 2.93555 17.4561C2.49962 16.6005 2.5 15.4802 2.5 13.2402V10.9316C2.5 8.69143 2.49957 7.57049 2.93555 6.71484C3.31902 5.96234 3.93109 5.35027 4.68359 4.9668C5.53924 4.53082 6.66018 4.53125 8.90039 4.53125H15.0996ZM17.9141 8.11426C17.6677 7.74772 17.1704 7.65027 16.8037 7.89648L16.0537 8.40039L14.5537 9.40723L12 11.1221L9.44629 9.40723L7.94629 8.40039L7.19629 7.89648C6.82959 7.65027 6.33231 7.74772 6.08594 8.11426C5.83969 8.48096 5.93715 8.97823 6.30371 9.22461L7.05371 9.72852L8.55371 10.7354L11.5537 12.75C11.8234 12.9311 12.1766 12.9311 12.4463 12.75L15.4463 10.7354L16.9463 9.72852L17.6963 9.22461C18.0629 8.97823 18.1603 8.48096 17.9141 8.11426Z" fill="currentColor"/>
</g>

</svg>
