<svg width="24" height="24" viewBox="0 0 24 24" fill="none" xmlns="http://www.w3.org/2000/svg">
<g id="24_icon-fill/menu">
<g id="Vector">
<path d="M6.83594 12C6.83594 13.1046 5.94051 14 4.83594 14C3.73137 14 2.83594 13.1046 2.83594 12C2.83594 10.8954 3.73137 10 4.83594 10C5.94051 10 6.83594 10.8954 6.83594 12Z" fill="currentColor"/>
<path d="M13.8359 12C13.8359 13.1046 12.9405 14 11.8359 14C10.7314 14 9.83594 13.1046 9.83594 12C9.83594 10.8954 10.7314 10 11.8359 10C12.9405 10 13.8359 10.8954 13.8359 12Z" fill="currentColor"/>
<path d="M20.8359 12C20.8359 13.1046 19.9405 14 18.8359 14C17.7314 14 16.8359 13.1046 16.8359 12C16.8359 10.8954 17.7314 10 18.8359 10C19.9405 10 20.8359 10.8954 20.8359 12Z" fill="currentColor"/>
</g>
</g>

</svg>
