<svg width="24" height="24" viewBox="0 0 24 24" fill="none" xmlns="http://www.w3.org/2000/svg">
<g id="24_icon-fill/microphone-off">
<path id="Subtract" d="M20.2929 2.29297C20.6834 1.90256 21.3165 1.90248 21.707 2.29297C22.0507 2.63679 22.0906 3.16789 21.829 3.55664L3.55656 21.8291C3.1678 22.0908 2.63677 22.0508 2.29289 21.707C1.90237 21.3165 1.90237 20.6835 2.29289 20.293L6.1386 16.4463C5.29536 15.5391 4.67984 14.4559 4.33098 13.2861C4.17321 12.757 4.47387 12.2 5.00285 12.042C5.53193 11.8843 6.08902 12.1849 6.24699 12.7139C6.50184 13.5685 6.94826 14.36 7.55559 15.0293L8.97258 13.6123C8.36713 12.9113 7.99992 11.9989 7.99992 11V6C7.99992 3.79086 9.79079 2 11.9999 2C14.2089 2.00015 15.9999 3.79095 15.9999 6V6.58594L20.2929 2.29297ZM17.747 12.7139C17.9049 12.1848 18.462 11.8842 18.9911 12.042C19.5203 12.1999 19.8218 12.7569 19.664 13.2861C19.2878 14.5478 18.6021 15.7093 17.6542 16.6572C16.3924 17.919 14.7517 18.7122 12.9999 18.9336V21C12.9999 21.5522 12.5521 21.9998 11.9999 22C11.4476 22 10.9999 21.5523 10.9999 21V18.9346C10.5193 18.8742 10.0479 18.7686 9.58977 18.624L11.2597 16.9541C11.503 16.9844 11.7492 17 11.997 17C13.5883 17 15.115 16.3674 16.2402 15.2422C16.9509 14.5313 17.4648 13.6601 17.747 12.7139Z" fill="currentColor"/>
</g>

</svg>
