<svg width="24" height="24" viewBox="0 0 24 24" fill="none" xmlns="http://www.w3.org/2000/svg">
<g id="24_icon-fill/missed-call">
<path id="Union" d="M11.999 13.9994C17.3835 13.9995 22.7695 16.0134 22.372 20.763C22.3332 21.2266 22.3136 21.4586 22.1337 21.7337C21.9987 21.9402 21.7011 22.1721 21.4677 22.2523C21.1565 22.3591 20.8531 22.3084 20.247 22.2074L17.9941 21.8314C17.2708 21.7108 16.9084 21.6504 16.6093 21.4857C16.3451 21.3401 16.1168 21.1371 15.9423 20.891C15.7449 20.6124 15.6448 20.2591 15.4433 19.554L14.998 17.9994C14.9887 17.989 14.5337 17.4994 11.999 17.4994C9.46162 17.4994 9.00749 17.9899 8.99895 17.9994L8.55462 19.554C8.35316 20.2591 8.25205 20.6124 8.05462 20.891C7.88014 21.1371 7.65188 21.3401 7.38762 21.4857C7.08857 21.6504 6.72686 21.7109 6.00384 21.8314L3.75188 22.2074C3.15223 22.3073 2.85172 22.3567 2.53509 22.2445C2.30255 22.1619 1.99529 21.9149 1.86516 21.7054C1.68796 21.4201 1.67733 21.1993 1.6552 20.7581C1.41712 16.0117 7.51313 13.9994 11.999 13.9994ZM19.2226 3.65268C19.7555 3.66582 20.1849 4.09442 20.1982 4.62729L20.29 8.35287C20.312 9.2553 19.2213 9.72268 18.5829 9.08432L17.456 7.95737L13.707 11.7064C13.3164 12.0969 12.6834 12.0969 12.2929 11.7064L8.2929 7.70639C7.90237 7.31587 7.90237 6.68285 8.2929 6.29233C8.68342 5.9018 9.31644 5.9018 9.70696 6.29233L12.9999 9.5853L16.0419 6.5433L14.7656 5.26694C14.1279 4.62847 14.5956 3.53863 15.498 3.56088L19.2226 3.65268Z" fill="currentColor"/>
</g>

</svg>
