<svg width="24" height="24" viewBox="0 0 24 24" fill="none" xmlns="http://www.w3.org/2000/svg">
<g id="24_icon-fill/num-list">
<path id="Vector" d="M20 17.5469H12C11.4477 17.5469 11 17.0992 11 16.5469C11 15.9946 11.4477 15.5469 12 15.5469H20C20.5523 15.5469 21 15.9946 21 16.5469C21 17.0992 20.5523 17.5469 20 17.5469Z" fill="currentColor"/>
<g id="Frame 61">
<path id="1" d="M6.85156 11.2432C6.31934 11.2432 5.95801 10.8965 5.95801 10.3594V5.66699H5.92383L5.04492 6.27734C4.88379 6.38965 4.77637 6.42871 4.60547 6.42871C4.25879 6.42871 4 6.16992 4 5.80859C4 5.5498 4.10254 5.34961 4.35645 5.17383L5.68945 4.26562C6.06543 4.01172 6.36816 3.97266 6.71973 3.97266C7.36426 3.97266 7.74023 4.3584 7.74023 4.97363V10.3594C7.74023 10.8965 7.38379 11.2432 6.85156 11.2432Z" fill="currentColor"/>
<path id="2" d="M4.98047 20.2002C4.4043 20.2002 4.14062 19.8779 4.14062 19.4336C4.14062 19.0967 4.28223 18.8574 4.63379 18.5547L6.64551 16.7285C7.4707 15.9766 7.69531 15.6543 7.69531 15.1953C7.69531 14.6875 7.30469 14.3262 6.74316 14.3262C6.2793 14.3262 5.96191 14.5508 5.70312 15.0195C5.47852 15.3662 5.26855 15.5078 4.90723 15.5078C4.44336 15.5078 4.16504 15.2393 4.16504 14.7998C4.16504 14.6631 4.18457 14.5361 4.23828 14.4092C4.5459 13.5986 5.4834 12.9785 6.76758 12.9785C8.37402 12.9785 9.42871 13.833 9.42871 15.0781C9.42871 15.9814 8.96973 16.499 7.85156 17.5098L6.4502 18.7891V18.8232H8.88672C9.34082 18.8232 9.60449 19.0918 9.60449 19.5117C9.60449 19.9219 9.34082 20.2002 8.88672 20.2002H4.98047Z" fill="currentColor"/>
</g>
<path id="Vector_2" d="M20 8.56641H12C11.4477 8.56641 11 8.11869 11 7.56641C11 7.01412 11.4477 6.56641 12 6.56641H20C20.5523 6.56641 21 7.01412 21 7.56641C21 8.11869 20.5523 8.56641 20 8.56641Z" fill="currentColor"/>
</g>

</svg>
