<svg width="24" height="24" viewBox="0 0 24 24" fill="none" xmlns="http://www.w3.org/2000/svg">
<g id="24_icon-fill/card">
<path id="Vector" d="M16.5791 4.53125C18.0852 4.53125 18.8049 4.65233 19.5361 5.04199C20.1594 5.37417 20.654 5.86717 20.9873 6.48828C21.3783 7.217 21.5 7.93379 21.5 9.43457V14.7363C21.5 16.2373 21.3784 16.9548 20.9873 17.6836C20.654 18.3045 20.1593 18.7968 19.5361 19.1289C18.8048 19.5186 18.0852 19.6396 16.5791 19.6396H7.4209C5.91475 19.6396 5.19518 19.5186 4.46387 19.1289C3.84069 18.7968 3.34603 18.3045 3.0127 17.6836C2.62156 16.9548 2.5 16.2373 2.5 14.7363V9.43457C2.50001 7.93379 2.62165 7.217 3.0127 6.48828C3.34603 5.86717 3.84058 5.37417 4.46387 5.04199C5.19514 4.65233 5.91484 4.53125 7.4209 4.53125H16.5791ZM6.5 7.76074C6.0582 7.76074 5.70023 8.11874 5.7002 8.56055C5.70017 9.00237 6.05817 9.36032 6.5 9.36035H10.5C10.9418 9.36035 11.2998 9.00236 11.2998 8.56055C11.2996 8.11891 10.9417 7.76077 10.5 7.76074H6.5Z" fill="currentColor"/>
</g>

</svg>
