<svg width="24" height="24" viewBox="0 0 24 24" fill="none" xmlns="http://www.w3.org/2000/svg">
<g id="24_icon-fill/chart">
<path id="Ellipse 253649" d="M19.4 12C19.9446 12 20.2169 12 20.4493 12.1345C20.6321 12.2402 20.8171 12.4615 20.8889 12.6601C20.9802 12.9126 20.9395 13.1389 20.8582 13.5916C20.6402 14.8047 20.1743 15.9659 19.4832 17.0001C18.4943 18.4802 17.0887 19.6337 15.4442 20.3149C13.7996 20.9961 11.99 21.1743 10.2442 20.8271C8.49836 20.4798 6.89471 19.6226 5.63604 18.364C4.37737 17.1053 3.5202 15.5016 3.17293 13.7558C2.82567 12.01 3.0039 10.2004 3.68508 8.55585C4.36627 6.91131 5.51983 5.50571 6.99987 4.51677C8.0341 3.82572 9.1953 3.35982 10.4084 3.14185C10.8611 3.06051 11.0874 3.01984 11.3399 3.11109C11.5385 3.18286 11.7598 3.36793 11.8655 3.55071C12 3.78309 12 4.05539 12 4.6V8.8C12 9.9201 12 10.4802 12.218 10.908C12.4097 11.2843 12.7157 11.5903 13.092 11.782C13.5198 12 14.0799 12 15.2 12H19.4Z" fill="currentColor"/>
<path id="Ellipse 253650" d="M13.3984 3.17961C13.3984 2.65542 13.3984 2.39333 13.524 2.16704C13.6316 1.97297 13.8637 1.77845 14.0736 1.70635C14.3183 1.62228 14.5356 1.66084 14.9703 1.73794C15.6109 1.85156 16.2387 2.03456 16.8426 2.28469C17.9345 2.73699 18.9267 3.39992 19.7624 4.23565C20.5981 5.07138 21.2611 6.06353 21.7134 7.15546C21.9635 7.75933 22.1465 8.38718 22.2601 9.0277C22.3372 9.4624 22.3758 9.67975 22.2917 9.92449C22.2196 10.1344 22.0251 10.3664 21.831 10.4741C21.6047 10.5996 21.3426 10.5996 20.8184 10.5996L14.9784 10.5996C14.4372 10.5996 14.1666 10.5996 13.9585 10.4976C13.7592 10.4 13.598 10.2388 13.5004 10.0395C13.3984 9.8314 13.3984 9.5608 13.3984 9.01961V3.17961Z" fill="currentColor"/>
</g>

</svg>
