<svg width="24" height="24" viewBox="0 0 24 24" fill="none" xmlns="http://www.w3.org/2000/svg">
<g id="24_icon-fill/pin-off">
<path id="Vector" d="M12.9999 19V22C12.9999 22.5522 12.5521 22.9999 11.9999 23C11.4476 23 10.9999 22.5523 10.9999 22V19C10.9999 18.9886 11.0005 18.9772 11.0009 18.9658C11.3301 18.9875 11.6638 19 11.9999 19C12.3357 19 12.669 18.9875 12.998 18.9658C12.9984 18.9772 12.9999 18.9885 12.9999 19ZM20.2929 2.29297C20.6834 1.90254 21.3165 1.90248 21.707 2.29297C22.0507 2.6368 22.0906 3.16789 21.829 3.55664L3.55656 21.8291C3.16781 22.0908 2.63676 22.0508 2.29289 21.707C1.90237 21.3165 1.90237 20.6835 2.29289 20.293L6.27336 16.3115C5.47151 15.5994 4.99992 14.6628 4.99992 13.5C4.99992 11.4611 6.44759 10.1151 8.58879 9.46191L8.9218 7.46777C7.75229 6.9804 6.99992 6.15893 6.99992 5C6.99992 3 9.2385 2 11.9999 2C14.7613 2.00005 16.9999 3.00005 16.9999 5C16.9999 5.24292 16.9643 5.47032 16.9013 5.68359L20.2929 2.29297ZM17.6171 10.5967C18.4849 11.3192 18.9999 12.2857 18.9999 13.5C18.9999 16.4999 15.8658 17.9999 11.9999 18C11.4198 18 10.8563 17.9642 10.3173 17.8965L17.6171 10.5967ZM15.0771 7.46777L15.0829 7.50195L15.1513 7.43359C15.1265 7.44441 15.1023 7.45726 15.0771 7.46777Z" fill="currentColor"/>
</g>

</svg>
