<svg width="24" height="24" viewBox="0 0 24 24" fill="none" xmlns="http://www.w3.org/2000/svg">
<g id="24_icon-fill/pin">
<g id="Vector">
<path d="M13 19V22C13 22.5523 12.5523 23 12 23C11.4477 23 11 22.5523 11 22V19C11 18.9886 11.0006 18.9772 11.001 18.9658C11.3303 18.9875 11.6638 19 12 19C12.3359 19 12.6691 18.9875 12.998 18.9658C12.9984 18.9772 13 18.9885 13 19Z" fill="currentColor"/>
<path d="M12 2C14.7614 2 17 3 17 5C17 6.15921 16.2471 6.98045 15.0771 7.46777L15.4102 9.46191C17.5518 10.115 19 11.4608 19 13.5C19 16.5 15.866 18 12 18C8.13401 18 5 16.5 5 13.5C5 11.4611 6.44767 10.1151 8.58887 9.46191L8.92188 7.46777C7.75237 6.9804 7 6.15893 7 5C7 3 9.23858 2 12 2Z" fill="currentColor"/>
</g>
</g>

</svg>
