<svg width="24" height="24" viewBox="0 0 24 24" fill="none" xmlns="http://www.w3.org/2000/svg">
<g id="24_icon-fill/plane">
<path id="Vector" d="M20.7766 3.22202C19.9279 2.37336 18.1269 2.88345 16.7353 4.27508L14.0018 7.00862C13.6911 7.31925 13.5439 7.37084 13.1419 7.36644L3.94605 7.19126C3.60523 7.1735 3.274 7.28958 3.03792 7.52566L2.193 8.37057C1.8948 8.66877 2.00819 9.10522 2.40736 9.25588L9.31699 11.7173L6.60703 15.1205L3.43098 14.2804C3.10353 14.2015 2.79715 14.2927 2.52379 14.5661L2.22559 14.8643C1.95223 15.1376 1.94515 15.5033 2.20811 15.7662L8.24431 21.8024C8.49532 22.0535 8.86099 22.0464 9.13435 21.773L9.43255 21.4748C9.70591 21.2015 9.80909 20.907 9.71819 20.5676L8.89003 17.4035L12.2813 14.6816L14.7427 21.5912C14.9053 22.0024 15.3298 22.1038 15.628 21.8056L16.4729 20.9607C16.709 20.7246 16.8371 20.4053 16.8193 20.0645L16.6441 10.8686C16.6278 10.4547 16.6913 10.3194 17.0019 10.0088L19.7355 7.27525C21.1271 5.88362 21.6252 4.07067 20.7766 3.22202Z" fill="currentColor"/>
</g>

</svg>
