<svg width="24" height="24" viewBox="0 0 24 24" fill="none" xmlns="http://www.w3.org/2000/svg">
<g id="24_icon-fill/plus">
<path id="Vector" d="M11 17.7695V12.7695H6C5.44772 12.7695 5 12.3218 5 11.7695C5 11.2172 5.44772 10.7695 6 10.7695H11V5.76953C11 5.21725 11.4477 4.76953 12 4.76953C12.5523 4.76953 13 5.21725 13 5.76953V10.7695H18C18.5523 10.7695 19 11.2172 19 11.7695C19 12.3218 18.5523 12.7695 18 12.7695H13V17.7695C13 18.3218 12.5523 18.7695 12 18.7695C11.4477 18.7695 11 18.3218 11 17.7695Z" fill="currentColor"/>
</g>

</svg>
