<svg width="24" height="24" viewBox="0 0 24 24" fill="none" xmlns="http://www.w3.org/2000/svg">
<g id="smile-qr 3">
<path id="Vector" d="M4 15.1084C4.55225 15.1084 4.99994 15.5595 5 16.1157V17.7279C5.00021 18.5063 5.62664 19.1372 6.39942 19.1374H8C8.55225 19.1374 8.99994 19.5885 9 20.1447C9 20.701 8.55229 21.1519 8 21.1519H6.39942C4.52207 21.1517 3.00021 19.6188 3 17.7279V16.1157C3.00007 15.5595 3.44776 15.1084 4 15.1084ZM20.0001 15.1084C20.5523 15.1084 21 15.5595 21.0001 16.1157V17.7279C20.9998 19.6188 19.478 21.1517 17.6006 21.1519H16.0001C15.4478 21.1519 15 20.701 15 20.1447C15 19.5885 15.4478 19.1374 16.0001 19.1374H17.6006C18.3734 19.1372 18.9998 18.5063 19.0001 17.7279V16.1157C19.0001 15.5595 19.4478 15.1084 20.0001 15.1084ZM14.5908 12.0946C15.0133 11.7365 15.6444 11.791 16.0001 12.2165C16.3555 12.6421 16.3013 13.2778 15.879 13.6359C15.4872 13.968 15.0625 14.2517 14.6114 14.4789C13.7908 14.8921 12.9024 15.1084 11.9991 15.1084C11.0957 15.1084 10.2071 14.8921 9.38672 14.4789C8.93579 14.2518 8.51171 13.9678 8.12012 13.6359C7.69758 13.2777 7.64339 12.6421 7.99903 12.2165C8.35464 11.7912 8.98476 11.7366 9.40723 12.0946C9.68328 12.3285 9.97667 12.5234 10.2812 12.6768C10.8334 12.9549 11.4166 13.0939 11.9991 13.0939C12.5815 13.0939 13.1646 12.9549 13.7168 12.6768C14.0214 12.5234 14.3147 12.3286 14.5908 12.0946ZM8 3.02148C8.55225 3.02148 8.99994 3.4725 9 4.02873C9 4.58501 8.55229 5.03598 8 5.03598H6.39942C5.62668 5.03619 5.00028 5.66721 5 6.44553V8.05772C5 8.614 4.55229 9.06496 4 9.06496C3.44772 9.06496 3 8.614 3 8.05772V6.44553C3.00028 4.55463 4.52211 3.0217 6.39942 3.02148H8ZM17.6006 3.02148C19.4778 3.0217 20.9998 4.55463 21.0001 6.44553V8.05772C21.0001 8.614 20.5523 9.06496 20.0001 9.06496C19.4478 9.06496 19.0001 8.614 19.0001 8.05772V6.44553C18.9998 5.66721 18.3734 5.03619 17.6006 5.03598H16.0001C15.4478 5.03598 15 4.58501 15 4.02873C15 3.4725 15.4478 3.02148 16.0001 3.02148H17.6006Z" fill="currentColor"/>
</g>

</svg>
