<svg width="24" height="24" viewBox="0 0 24 24" fill="none" xmlns="http://www.w3.org/2000/svg">
<g id="24_icon-fill/refresh-right">
<path id="Vector" d="M18.293 2.30827C18.579 2.02027 19.0092 1.93461 19.3828 2.0905C19.7562 2.2464 19.9998 2.61306 20 3.02019V8.05729C19.9998 8.61338 19.5521 9.06413 19 9.06413H14C13.5955 9.06412 13.2309 8.81843 13.0762 8.44206C12.9215 8.06573 13.007 7.63242 13.293 7.3444L14.9385 5.6862C14.0447 5.2692 13.0495 5.03581 12 5.03581C8.13401 5.03581 5 8.19258 5 12.0866C5.00011 15.9805 8.13408 19.1374 12 19.1374C15.8659 19.1374 18.9999 15.9805 19 12.0866C19 11.5303 19.4477 11.0788 20 11.0788C20.5523 11.0788 21 11.5303 21 12.0866C20.9999 17.0931 16.9705 21.152 12 21.152C7.02951 21.152 3.00011 17.0931 3 12.0866C3 7.08001 7.02944 3.02116 12 3.02116C13.6081 3.02116 15.1176 3.44611 16.4238 4.19011L18.293 2.30827Z" fill="currentColor"/>
</g>

</svg>
