<svg width="24" height="24" viewBox="0 0 24 24" fill="none" xmlns="http://www.w3.org/2000/svg">
<g id="24_icon-fill/refresh-left">
<path id="Vector" d="M4.61719 2.0905C4.99083 1.93461 5.42103 2.02027 5.70703 2.30827L7.5752 4.19011C8.88155 3.44585 10.3916 3.02116 12 3.02116C16.9706 3.02116 21 7.08001 21 12.0866C20.9999 17.0931 16.9705 21.152 12 21.152C7.02951 21.152 3.00011 17.0931 3 12.0866C3 11.5303 3.44772 11.0788 4 11.0788C4.55228 11.0788 5 11.5303 5 12.0866C5.00011 15.9805 8.13408 19.1374 12 19.1374C15.8659 19.1374 18.9999 15.9805 19 12.0866C19 8.19258 15.866 5.03581 12 5.03581C10.9501 5.03581 9.95454 5.26897 9.06055 5.6862L10.707 7.3444C10.993 7.63242 11.0785 8.06573 10.9238 8.44206C10.7691 8.81843 10.4045 9.06412 10 9.06413H5C4.44786 9.06413 4.00024 8.61338 4 8.05729V3.02019C4.00018 2.61306 4.24379 2.2464 4.61719 2.0905Z" fill="currentColor"/>
</g>

</svg>
