<svg width="24" height="24" viewBox="0 0 24 24" fill="none" xmlns="http://www.w3.org/2000/svg">
<g id="24_icon-fill/circle-replay">
<path id="Vector" d="M12 2.51953C17.2465 2.51953 21.4997 6.80339 21.5 12.0879C21.5 17.3726 17.2467 21.6572 12 21.6572C6.75329 21.6572 2.5 17.3726 2.5 12.0879C2.50026 6.80339 6.75345 2.51953 12 2.51953ZM12.3965 7.05078C12.0131 7.05104 11.7373 7.3611 11.7373 7.74609V9.45605H11.6299C8.48991 9.45605 7.00007 11.5786 7 15.0918C7 15.7494 7.25869 16.0879 7.59766 16.0879C7.85635 16.0879 8.07927 15.9937 8.2666 15.6367C8.97133 14.2559 9.97069 13.7295 11.6299 13.7295H11.7373V15.4395C11.7373 15.8245 12.0132 16.116 12.3877 16.1162C12.6464 16.1162 12.843 16.003 13.0928 15.7588L16.7412 12.1611C16.9284 11.9828 16.9999 11.7763 17 11.5791C17 11.3912 16.9285 11.1843 16.7412 11.0059L13.0928 7.41699C12.8163 7.15401 12.6462 7.05078 12.3965 7.05078Z" fill="currentColor"/>
</g>

</svg>
