<svg width="24" height="24" viewBox="0 0 24 24" fill="none" xmlns="http://www.w3.org/2000/svg">
<g id="24_icon-fill/safe-plus">
<path id="Subtract" fill-rule="evenodd" clip-rule="evenodd" d="M16.5791 3C18.0852 3 18.8048 3.12834 19.5361 3.54102C20.1594 3.89279 20.654 4.41451 20.9873 5.07227C21.3784 5.844 21.5 6.60309 21.5 8.19238V13.8076C21.5 15.3969 21.3784 16.156 20.9873 16.9277C20.654 17.5855 20.1594 18.1072 19.5361 18.459C19.0829 18.7147 18.6342 18.8601 18 18.9346V19.5C18 20.3284 17.3284 21 16.5 21C15.6716 21 15 20.3284 15 19.5V19H9V19.5C9 20.3284 8.32843 21 7.5 21C6.67157 21 6 20.3284 6 19.5V18.9346C5.36582 18.8601 4.91709 18.7147 4.46387 18.459C3.84058 18.1072 3.34603 17.5855 3.0127 16.9277C2.6216 16.156 2.50002 15.3969 2.5 13.8076V8.19238C2.50002 6.60309 2.6216 5.844 3.0127 5.07227C3.34603 4.41451 3.84058 3.89279 4.46387 3.54102C5.19516 3.12834 5.91479 3 7.4209 3H16.5791ZM14.6865 8.31348C14.3741 8.00106 13.8681 8.00106 13.5557 8.31348L12 9.86914L10.4443 8.31348C10.1319 8.00106 9.6259 8.00107 9.31348 8.31348C9.00106 8.6259 9.00106 9.13192 9.31348 9.44434L10.8691 11L9.31348 12.5557C9.00106 12.8681 9.00106 13.3741 9.31348 13.6865C9.6259 13.9989 10.1319 13.9989 10.4443 13.6865L12 12.1309L13.5557 13.6865C13.8681 13.9989 14.3741 13.9989 14.6865 13.6865C14.9989 13.3741 14.9989 12.8681 14.6865 12.5557L13.1309 11L14.6865 9.44434C14.9989 9.13192 14.9989 8.6259 14.6865 8.31348Z" fill="currentColor"/>
</g>

</svg>
