<svg width="24" height="24" viewBox="0 0 24 24" fill="none" xmlns="http://www.w3.org/2000/svg">
<g id="24_icon-fill/safe-outcome">
<path id="Vector" fill-rule="evenodd" clip-rule="evenodd" d="M16.5791 3C18.0852 3 18.8048 3.12834 19.5361 3.54102C20.1594 3.89279 20.654 4.41451 20.9873 5.07227C21.3784 5.844 21.5 6.60309 21.5 8.19238V13.8076C21.5 15.3969 21.3784 16.156 20.9873 16.9277C20.654 17.5855 20.1594 18.1072 19.5361 18.459C19.0829 18.7147 18.6342 18.8601 18 18.9346V19.5C18 20.3284 17.3284 21 16.5 21C15.6716 21 15 20.3284 15 19.5V19H9V19.5C9 20.3284 8.32843 21 7.5 21C6.67157 21 6 20.3284 6 19.5V18.9346C5.36582 18.8601 4.91709 18.7147 4.46387 18.459C3.84058 18.1072 3.34603 17.5855 3.0127 16.9277C2.6216 16.156 2.50002 15.3969 2.5 13.8076V8.19238C2.50002 6.60309 2.6216 5.844 3.0127 5.07227C3.34603 4.41451 3.84058 3.89279 4.46387 3.54102C5.19516 3.12834 5.91479 3 7.4209 3H16.5791ZM13.9141 6C13.0233 6.00012 12.5772 7.07709 13.207 7.70703L14.4346 8.93457L10.9346 12.4346C10.6222 12.747 10.6222 13.253 10.9346 13.5654C11.247 13.8778 11.753 13.8778 12.0654 13.5654L15.5654 10.0654L16.793 11.293C17.4229 11.9228 18.4999 11.4767 18.5 10.5859V7C18.5 6.44772 18.0523 6 17.5 6H13.9141Z" fill="currentColor"/>
</g>

</svg>
