<svg width="24" height="24" viewBox="0 0 24 24" fill="none" xmlns="http://www.w3.org/2000/svg">
<g id="24_icon-fill/safe-plus">
<path id="Union" d="M7.42059 3.02148C5.91436 3.02148 5.19499 3.15068 4.46363 3.56643C3.84034 3.92075 3.34602 4.44619 3.01268 5.10871C2.62155 5.8861 2.5 6.65075 2.5 8.25179V12.8999C2.5 14.5009 2.62155 15.2656 3.01268 16.043C3.34602 16.7055 3.84034 17.2309 4.46363 17.5852C5.19499 18.001 5.91436 18.1302 7.42059 18.1302H16.5794C18.0856 18.1302 18.805 18.001 19.5364 17.5852C20.1597 17.2309 20.654 16.7055 20.9873 16.043C21.3785 15.2656 21.5 14.5009 21.5 12.8999V8.25179C21.5 6.65075 21.3785 5.8861 20.9873 5.10871C20.654 4.44619 20.1597 3.92075 19.5364 3.56643C18.805 3.15068 18.0856 3.02148 16.5794 3.02148H7.42059Z" fill="currentColor"/>
<path id="Vector 234255149" d="M9 11.5829L11 9.56836L13 11.5829L15 9.56836" stroke="var(--background)" stroke-width="1.6" stroke-linecap="round" stroke-linejoin="round"/>
<path id="Vector 234255901 (Stroke)" d="M19 20.1445C19.5523 20.1445 20 20.5955 20 21.1518C20 21.7081 19.5523 22.159 19 22.159H5C4.44772 22.159 4 21.7081 4 21.1518C4 20.5955 4.44772 20.1445 5 20.1445H19Z" fill="currentColor"/>
</g>

</svg>
