<svg width="24" height="24" viewBox="0 0 24 24" fill="none" xmlns="http://www.w3.org/2000/svg">
<g id="24_icon-fill/safe-plus">
<path id="Subtract" d="M16.5791 2.01367C18.0852 2.01367 18.8048 2.1429 19.5361 2.55859C20.1594 2.91289 20.654 3.43813 20.9873 4.10059C21.3784 4.87798 21.5 5.6431 21.5 7.24414V12.8994C21.5 14.5001 21.3783 15.2647 20.9873 16.042C20.654 16.7045 20.1594 17.2306 19.5361 17.585C18.8049 18.0005 18.0851 18.1299 16.5791 18.1299H7.4209C5.91492 18.1299 5.1951 18.0005 4.46387 17.585C3.84058 17.2306 3.34603 16.7045 3.0127 16.042C2.62166 15.2647 2.50001 14.5001 2.5 12.8994V7.24414C2.5 5.6431 2.62156 4.87798 3.0127 4.10059C3.34603 3.43813 3.84062 2.91289 4.46387 2.55859C5.19518 2.1429 5.91475 2.01367 7.4209 2.01367H16.5791ZM7 6.19824C6.55817 6.19824 6.2002 6.55622 6.2002 6.99805V12.998C6.2002 13.4399 6.55817 13.7979 7 13.7979C7.44183 13.7979 7.7998 13.4399 7.7998 12.998V6.99805C7.7998 6.55622 7.44183 6.19824 7 6.19824ZM14.5 6.99805C12.8431 6.99805 11.5 8.34119 11.5 9.99805C11.5 11.6549 12.8431 12.998 14.5 12.998C16.1569 12.998 17.5 11.6549 17.5 9.99805C17.5 8.34119 16.1569 6.99805 14.5 6.99805Z" fill="currentColor"/>
<path id="Vector" d="M19 20.1445C19.5523 20.1445 20 20.5955 20 21.1518C20 21.7081 19.5523 22.159 19 22.159H5C4.44772 22.159 4 21.7081 4 21.1518C4 20.5955 4.44772 20.1445 5 20.1445H19Z" fill="currentColor"/>
</g>

</svg>
