<svg width="24" height="24" viewBox="0 0 24 24" fill="none" xmlns="http://www.w3.org/2000/svg">
<g id="24_icon-fill/safe-income">
<path id="Vector" d="M16.5791 3.02148C18.0852 3.02148 18.8048 3.15074 19.5361 3.56641C20.1593 3.92068 20.654 4.446 20.9873 5.1084C21.3784 5.88579 21.5 6.65092 21.5 8.25195V13.9072C21.5 15.508 21.3783 16.2725 20.9873 17.0498C20.654 17.7123 20.1594 18.2385 19.5361 18.5928C19.083 18.8503 18.6341 18.9963 18 19.0713V19.5C18 20.3284 17.3284 21 16.5 21C15.6716 21 15 20.3284 15 19.5V19.1377H9V19.5C9 20.3284 8.32843 21 7.5 21C6.67157 21 6 20.3284 6 19.5V19.0713C5.36589 18.9963 4.91704 18.8503 4.46387 18.5928C3.84058 18.2385 3.34603 17.7123 3.0127 17.0498C2.62169 16.2725 2.50001 15.508 2.5 13.9072V8.25195C2.5 6.65091 2.62156 5.88579 3.0127 5.1084C3.34603 4.446 3.84066 3.92068 4.46387 3.56641C5.19516 3.15074 5.9148 3.02148 7.4209 3.02148H16.5791ZM13.0654 8.43457C12.753 8.12215 12.247 8.12215 11.9346 8.43457L8.43457 11.9346L7.20703 10.707C6.57709 10.0772 5.50012 10.5233 5.5 11.4141V15C5.5 15.5523 5.94772 16 6.5 16H10.0859C10.9767 15.9999 11.4228 14.9229 10.793 14.293L9.56543 13.0654L13.0654 9.56543C13.3778 9.25301 13.3778 8.74699 13.0654 8.43457Z" fill="currentColor"/>
</g>

</svg>
