<svg width="24" height="24" viewBox="0 0 24 24" fill="none" xmlns="http://www.w3.org/2000/svg">
<g id="24_icon-fill/magnify-alt">
<path id="Vector" fill-rule="evenodd" clip-rule="evenodd" d="M11 3C15.4183 3 19 6.58172 19 11C19 12.667 18.4885 14.2137 17.6162 15.4951L20.0605 17.9395L20.1641 18.0537C20.6442 18.6429 20.6096 19.5115 20.0605 20.0605C19.5115 20.6096 18.6429 20.6442 18.0537 20.1641L17.9395 20.0605L15.4951 17.6162C14.2137 18.4885 12.667 19 11 19C6.58172 19 3 15.4183 3 11C3 6.58172 6.58172 3 11 3ZM11 5C7.68629 5 5 7.68629 5 11C5 14.3137 7.68629 17 11 17C14.3137 17 17 14.3137 17 11C17 7.68629 14.3137 5 11 5Z" fill="currentColor"/>
</g>

</svg>
