<svg width="24" height="24" viewBox="0 0 24 24" fill="none" xmlns="http://www.w3.org/2000/svg">
<g id="Share">
<path id="&#xF4;&#x80;&#x89;&#x91;" d="M12.2891 17.2773V14.293H12.0625C9.03906 14.293 7.125 15.0586 5.76562 17.6133C5.49219 18.1133 5.13281 18.1914 4.80469 18.1914C4.38281 18.1914 4 17.8164 4 17.1445C4 11.3711 6.44531 7.76953 12.0625 7.76953H12.2891V4.81641C12.2891 4.29297 12.6797 3.86328 13.2266 3.86328C13.6094 3.86328 13.8672 4.02734 14.2812 4.41797L20.4453 10.1836C20.75 10.4727 20.8438 10.7617 20.8438 11.0273C20.8438 11.2852 20.7422 11.582 20.4453 11.8633L14.2812 17.6836C13.9062 18.0352 13.5938 18.1914 13.2109 18.1914C12.6797 18.1914 12.2891 17.8008 12.2891 17.2773Z" fill="currentColor"/>
</g>

</svg>
