<svg width="24" height="24" viewBox="0 0 24 24" fill="none" xmlns="http://www.w3.org/2000/svg">
<g id="24_icon-fill/chield-smile">
<path id="Vector" d="M12.0001 2.01367C15.5067 2.01367 16.5936 4.45598 19.714 4.8457C20.2049 4.90715 20.6268 5.25877 20.6857 5.75C20.907 7.59576 21.3185 11.9997 20.5744 14.5127C19.4603 18.2744 14.8982 21.4159 12.921 22.6289C12.3522 22.9778 11.648 22.9778 11.0792 22.6289C9.10208 21.4159 4.53996 18.2744 3.42593 14.5127C2.68175 11.9997 3.09329 7.59576 3.3146 5.75C3.3735 5.25877 3.79538 4.90715 4.28628 4.8457C7.40672 4.45598 8.49355 2.01367 12.0001 2.01367ZM15.8488 12.2578C15.5643 11.9198 15.0599 11.8766 14.7218 12.1611C14.4342 12.4032 14.1271 12.605 13.8078 12.7646C13.2289 13.054 12.6155 13.2002 12.0011 13.2002C11.3867 13.2002 10.7734 13.0541 10.1945 12.7646C9.87536 12.6051 9.56893 12.4031 9.2814 12.1611C8.94336 11.8766 8.43798 11.9198 8.15347 12.2578C7.86923 12.5957 7.91249 13.1003 8.25015 13.3848C8.63026 13.7047 9.04226 13.9771 9.47866 14.1953C10.2723 14.5921 11.1299 14.7998 12.0011 14.7998C12.8723 14.7998 13.73 14.5921 14.5236 14.1953C14.96 13.9771 15.3719 13.7047 15.7521 13.3848C16.0899 13.1002 16.1331 12.5958 15.8488 12.2578Z" fill="currentColor"/>
</g>

</svg>
