<svg width="24" height="24" viewBox="0 0 24 24" fill="none" xmlns="http://www.w3.org/2000/svg">
<g id="24_icon-fill/chield-minus">
<path id="Vector" fill-rule="evenodd" clip-rule="evenodd" d="M11.9993 2.01367C15.5063 2.01367 16.5931 4.4562 19.7142 4.84557C20.2047 4.9068 20.6264 5.26027 20.6859 5.75445C20.9073 7.60314 21.3171 12.0021 20.5736 14.5128C19.4586 18.2773 14.891 21.4207 12.9163 22.6317C12.3499 22.9791 11.6498 22.9791 11.0833 22.6317C9.10873 21.4208 4.54109 18.2774 3.4261 14.5128C2.68254 12.0021 3.09234 7.60314 3.31379 5.75445C3.37325 5.26026 3.79493 4.90677 4.28547 4.84557C7.40631 4.45611 8.49276 2.01382 11.9993 2.01367ZM9.0218 11.2009C8.58029 11.189 8.21347 11.5392 8.20149 11.9838C8.18973 12.4286 8.53737 12.799 8.97883 12.8111L14.9769 12.9714C15.4184 12.9833 15.7862 12.6331 15.7982 12.1884C15.8099 11.7436 15.4615 11.3731 15.0198 11.3612L9.0218 11.2009Z" fill="currentColor"/>
</g>

</svg>
