<svg width="24" height="24" viewBox="0 0 24 24" fill="none" xmlns="http://www.w3.org/2000/svg">
<g id="24_icon-fill/phone">
<path id="Subtract" d="M13.0996 1.50977C15.3398 1.50977 16.4608 1.51032 17.3164 1.94629C18.0688 2.3298 18.681 2.94186 19.0645 3.69434C19.5002 4.54992 19.5 5.67038 19.5 7.91016V16.2617C19.5 18.5019 19.5004 19.6229 19.0645 20.4785C18.681 21.231 18.0689 21.8431 17.3164 22.2266C16.4608 22.6625 15.3398 22.6621 13.0996 22.6621H10.9004C8.66018 22.6621 7.53924 22.6625 6.68359 22.2266C5.93109 21.8431 5.31902 21.231 4.93555 20.4785C4.49957 19.6229 4.5 18.5019 4.5 16.2617V7.91016C4.5 5.67037 4.49982 4.54992 4.93555 3.69434C5.31895 2.94186 5.93119 2.3298 6.68359 1.94629C7.53924 1.51032 8.66018 1.50977 10.9004 1.50977H13.0996Z" fill="currentColor"/>
<rect id="Rectangle 456747330" x="9.5" y="4.0293" width="5" height="2.01449" rx="1.00725" fill="var(--background)"/>
<path id="Vector 234255970" d="M9.5 19.1367H14.5" stroke="var(--background)" stroke-width="1.2" stroke-linecap="round"/>
</g>

</svg>
