<svg width="24" height="24" viewBox="0 0 24 24" fill="none" xmlns="http://www.w3.org/2000/svg">
<g id="24_icon-fill/sound">
<path id="Vector" d="M16 2.5C18.7614 2.5 21 6.75329 21 12C21 17.2467 18.7614 21.5 16 21.5C15.4492 21.5 14.9204 21.3291 14.4248 21.0166C13.6721 20.5726 12.7842 19.8069 12.0703 19.001C11.3169 18.1505 10.2818 17.4941 9.14551 17.4941H5.6543C5.60313 17.4976 5.55172 17.5 5.5 17.5C3.567 17.5 2 15.0376 2 12C2 8.96243 3.567 6.5 5.5 6.5H9.14551C10.2817 6.5 11.3169 5.84368 12.0703 4.99316C12.838 4.12649 13.8069 3.30617 14.5928 2.88281C15.0393 2.63433 15.5112 2.5 16 2.5ZM15.8457 4.50977C15.4077 4.56524 14.9956 4.85629 14.627 5.33203C14.5978 5.36969 14.5687 5.40829 14.54 5.44824C14.1765 5.95592 13.8596 6.64693 13.6094 7.47168C13.5004 7.83096 13.4033 8.21532 13.3213 8.62109C13.2381 9.03241 13.1703 9.46554 13.1182 9.91602L13.1201 9.91504C13.0418 10.5798 13 11.2787 13 12C13 12.7061 13.0401 13.3908 13.1152 14.043C13.4719 17.1891 14.6273 19.4941 16 19.4941V19.5C17.6569 19.5 19 16.1421 19 12C19 7.85786 17.6569 4.5 16 4.5C15.9483 4.5 15.8968 4.50329 15.8457 4.50977ZM14.7891 9.51758C16.0336 9.66092 17 10.7171 17 12C17 13.2829 16.0335 14.3381 14.7891 14.4814C14.6681 13.7215 14.5996 12.8861 14.5996 12C14.5996 11.1135 14.668 10.2778 14.7891 9.51758Z" fill="currentColor"/>
</g>

</svg>
