<svg width="24" height="24" viewBox="0 0 24 24" fill="none" xmlns="http://www.w3.org/2000/svg">
<g id="24_icon-fill/square-pass">
<path id="Vector" fill-rule="evenodd" clip-rule="evenodd" d="M14.0996 3.5C16.3398 3.5 17.4608 3.49957 18.3164 3.93555C19.0689 4.31902 19.681 4.93109 20.0645 5.68359C20.5004 6.53924 20.5 7.66018 20.5 9.90039V14.0996C20.5 16.3398 20.5004 17.4608 20.0645 18.3164C19.681 19.0689 19.0689 19.681 18.3164 20.0645C17.4608 20.5004 16.3398 20.5 14.0996 20.5H9.90039C7.66018 20.5 6.53924 20.5004 5.68359 20.0645C4.93109 19.681 4.31902 19.0689 3.93555 18.3164C3.49957 17.4608 3.5 16.3398 3.5 14.0996V9.90039C3.5 7.66018 3.49957 6.53924 3.93555 5.68359C4.31902 4.93109 4.93109 4.31902 5.68359 3.93555C6.53924 3.49957 7.66018 3.5 9.90039 3.5H14.0996ZM12 7.7002C11.5582 7.7002 11.2002 8.05817 11.2002 8.5V10.6143L9.36914 9.55762C8.98651 9.3367 8.49728 9.46795 8.27637 9.85059C8.05577 10.2332 8.18683 10.7215 8.56934 10.9424L10.4004 11.999L8.56934 13.0576C8.1867 13.2785 8.05545 13.7678 8.27637 14.1504C8.49738 14.5328 8.98662 14.6632 9.36914 14.4424L11.2002 13.3848V15.5C11.2002 15.9418 11.5582 16.2998 12 16.2998C12.4418 16.2998 12.7998 15.9418 12.7998 15.5V13.3838L14.6318 14.4424C15.0143 14.663 15.5026 14.5326 15.7236 14.1504C15.9445 13.7679 15.8139 13.2787 15.4316 13.0576L13.5986 11.999L15.4316 10.9424C15.8138 10.7214 15.9443 10.233 15.7236 9.85059C15.5028 9.46804 15.0144 9.33691 14.6318 9.55762L12.7998 10.6152V8.5C12.7998 8.05817 12.4418 7.7002 12 7.7002Z" fill="currentColor"/>
</g>

</svg>
