<svg width="24" height="24" viewBox="0 0 24 24" fill="none" xmlns="http://www.w3.org/2000/svg">
<g id="24_icon-fill/square-arrow-down">
<path id="Rectangle 456746791" d="M3.5 9.9C3.5 7.65979 3.5 6.53969 3.93597 5.68404C4.31947 4.93139 4.93139 4.31947 5.68404 3.93597C6.53969 3.5 7.65979 3.5 9.9 3.5H14.1C16.3402 3.5 17.4603 3.5 18.316 3.93597C19.0686 4.31947 19.6805 4.93139 20.064 5.68404C20.5 6.53969 20.5 7.65979 20.5 9.9V14.1C20.5 16.3402 20.5 17.4603 20.064 18.316C19.6805 19.0686 19.0686 19.6805 18.316 20.064C17.4603 20.5 16.3402 20.5 14.1 20.5H9.9C7.65979 20.5 6.53969 20.5 5.68404 20.064C4.93139 19.6805 4.31947 19.0686 3.93597 18.316C3.5 17.4603 3.5 16.3402 3.5 14.1V9.9Z" fill="currentColor"/>
<path id="Vector 118" d="M12.6558 16.7421L15.1913 14.2066C15.8213 13.5766 15.3751 12.4995 14.4842 12.4995L9.41315 12.4995C8.52225 12.4995 8.07608 13.5766 8.70605 14.2066L11.2416 16.7421C11.6321 17.1326 12.2653 17.1326 12.6558 16.7421Z" fill="var(--background)"/>
<path id="Vector 234255897" d="M12 13.5V7.5" stroke="var(--background)" stroke-width="2" stroke-linecap="round" stroke-linejoin="round"/>
</g>

</svg>
