<svg width="24" height="24" viewBox="0 0 24 24" fill="none" xmlns="http://www.w3.org/2000/svg">
<g id="24_icon-fill/steering-wheel">
<path id="Subtract" fill-rule="evenodd" clip-rule="evenodd" d="M2.5 12C2.5 6.75329 6.75329 2.5 12 2.5C17.2467 2.5 21.5 6.75329 21.5 12C21.5 17.2467 17.2467 21.5 12 21.5C6.75329 21.5 2.5 17.2467 2.5 12ZM18.7793 15.2061C17.5 14.5 16.1167 14.2564 15.542 14.3916C15.0391 14.51 14.6009 14.8181 14.3203 15.252C14 15.7475 14 16.5116 14 18.0384V18.041V19.2266C16.1157 18.6426 17.8553 17.1565 18.7793 15.2061ZM19.5 12C19.5 7.85786 16.1421 4.5 12 4.5C7.85786 4.5 4.5 7.85786 4.5 12L4.50045 12.0032L4.50098 12.0068C6.70697 10.7306 9.26807 10 12 10C14.7322 10 17.294 10.7234 19.5 12ZM8.45801 14.3916C7.88326 14.2564 6.5 14.5 5.21973 15.207L5.22168 15.2061C6.14569 17.1563 7.88441 18.6427 10 19.2266V18.041V18.0384C10 16.5116 10 15.7475 9.67969 15.252C9.39907 14.8181 8.96095 14.51 8.45801 14.3916Z" fill="currentColor"/>
</g>

</svg>
