<svg width="24" height="24" viewBox="0 0 24 24" fill="none" xmlns="http://www.w3.org/2000/svg">
<g id="24_icon-fill/tag">
<path id="Subtract" fill-rule="evenodd" clip-rule="evenodd" d="M18.8205 3.43573C19.5729 3.81922 20.1855 4.43171 20.5689 5.18416C21.0046 6.0397 21.0047 7.16031 21.0047 9.39987V11.4729C21.0047 12.5208 21.0042 13.0458 20.8859 13.5389C20.7809 13.976 20.6083 14.3945 20.3735 14.7777C20.1086 15.2101 19.7373 15.581 18.9966 16.3218L16.6612 18.6572C14.9644 20.354 14.115 21.2034 13.1367 21.5215C12.2762 21.8011 11.3484 21.801 10.4878 21.5215C9.50933 21.2036 8.66037 20.3542 6.96334 18.6572L5.34749 17.0413C3.65043 15.3442 2.80116 14.4953 2.48316 13.5168C2.20354 12.6561 2.20352 11.7286 2.48316 10.8679C2.80119 9.88954 3.65047 9.04047 5.34749 7.34346L7.68288 5.00807C8.42363 4.26732 8.79455 3.8961 9.22691 3.63115C9.61015 3.3964 10.0287 3.22369 10.4657 3.11877C10.9588 3.00052 11.484 3 12.5318 3H14.6048C16.8443 3.00001 17.965 2.9999 18.8205 3.43573ZM16.7613 7.24333C16.1755 6.65754 15.2258 6.65754 14.64 7.24333C14.0545 7.82914 14.0543 8.77897 14.64 9.36465C15.2257 9.95005 16.1756 9.95003 16.7613 9.36465C17.347 8.77896 17.3468 7.82914 16.7613 7.24333Z" fill="currentColor"/>
</g>

</svg>
