<svg width="24" height="24" viewBox="0 0 24 24" fill="none" xmlns="http://www.w3.org/2000/svg">
<g id="24_icon-fill/ticket-alt">
<path id="Vector" fill-rule="evenodd" clip-rule="evenodd" d="M8.2002 3C8.47118 3 8.60664 3.00036 8.69824 3.03809C8.79578 3.07834 8.83887 3.11089 8.90332 3.19434C8.9639 3.27279 9.01135 3.44572 9.10547 3.79102C9.45256 5.06406 10.6169 6 12 6C13.3831 6 14.5474 5.06406 14.8945 3.79102C14.9886 3.44572 15.0361 3.27279 15.0967 3.19434C15.1611 3.11089 15.2042 3.07834 15.3018 3.03809C15.3934 3.00036 15.5288 3 15.7998 3H17.9004C18.4602 3 18.7402 3.00041 18.9541 3.10938C19.1421 3.20522 19.2948 3.35793 19.3906 3.5459C19.4996 3.75976 19.5 4.03982 19.5 4.59961V19.4004C19.5 19.9602 19.4996 20.2402 19.3906 20.4541C19.2948 20.6421 19.1421 20.7948 18.9541 20.8906C18.7402 20.9996 18.4602 21 17.9004 21H15.7998C15.5288 21 15.3934 20.9996 15.3018 20.9619C15.2042 20.9217 15.1611 20.8891 15.0967 20.8057C15.0361 20.7272 14.9886 20.5543 14.8945 20.209C14.5474 18.9359 13.3831 18 12 18C10.6169 18 9.45256 18.9359 9.10547 20.209C9.01135 20.5543 8.9639 20.7272 8.90332 20.8057C8.83887 20.8891 8.79578 20.9217 8.69824 20.9619C8.60664 20.9996 8.47118 21 8.2002 21H6.09961C5.53982 21 5.25976 20.9996 5.0459 20.8906C4.85793 20.7948 4.70522 20.6421 4.60938 20.4541C4.50041 20.2402 4.5 19.9602 4.5 19.4004V4.59961C4.5 4.03982 4.50041 3.75976 4.60938 3.5459C4.70522 3.35793 4.85793 3.20522 5.0459 3.10938C5.25976 3.00041 5.53982 3 6.09961 3H8.2002ZM8.5 11C7.94772 11 7.5 11.4477 7.5 12C7.5 12.5523 7.94772 13 8.5 13C9.05228 13 9.5 12.5523 9.5 12C9.5 11.4477 9.05228 11 8.5 11ZM12 11C11.4477 11 11 11.4477 11 12C11 12.5523 11.4477 13 12 13C12.5523 13 13 12.5523 13 12C13 11.4477 12.5523 11 12 11ZM15.5 11C14.9477 11 14.5 11.4477 14.5 12C14.5 12.5523 14.9477 13 15.5 13C16.0523 13 16.5 12.5523 16.5 12C16.5 11.4477 16.0523 11 15.5 11Z" fill="currentColor"/>
</g>

</svg>
