<svg width="24" height="24" viewBox="0 0 24 24" fill="none" xmlns="http://www.w3.org/2000/svg">
<g id="24_icon-fill/trash">
<ellipse id="Ellipse 253592" cx="12" cy="9.5" rx="8" ry="2.5" fill="currentColor"/>
<path id="Vector 234255849" d="M5.88235 19.3018C5.88235 19.3018 4.00001 13.0173 4 9.375H20C20 13.0173 18.1176 19.3018 18.1176 19.3018C16.7059 23.3994 7.29412 23.3994 5.88235 19.3018Z" fill="currentColor"/>
<path id="Vector 234255939" d="M3 6.50035C8.5 4 15.5 4.00001 21 6.50035" stroke="currentColor" stroke-width="2" stroke-linecap="round"/>
<path id="Vector 234255940" d="M7.3359 3.99615L7 4.5H17L16.6641 3.99615C15.6245 2.43669 13.8742 1.5 12 1.5C10.1258 1.5 8.37554 2.43669 7.3359 3.99615Z" fill="currentColor"/>
<path id="Vector" d="M10 12L13.8888 15.8887M10.1112 16L14 12.1113" stroke="var(--background)" stroke-width="1.6" stroke-linecap="round" stroke-linejoin="round"/>
</g>

</svg>
