<svg width="24" height="24" viewBox="0 0 24 24" fill="none" xmlns="http://www.w3.org/2000/svg">
<g id="24_icon-fill/wallet">
<path id="Subtract" d="M13.7881 2.40516C15.2101 1.93115 15.9214 1.69371 16.4873 1.83582C16.9826 1.96025 17.4119 2.26948 17.6865 2.70008C18.0003 3.19202 18 3.94161 18 5.44031V6.43934C17.4158 6.40166 16.6971 6.40223 15.7969 6.40223H10.2969C9.85505 6.40223 9.49707 6.7602 9.49707 7.20203C9.49707 7.64386 9.85505 8.00184 10.2969 8.00184H15.7969C16.7395 8.00184 17.4064 8.00222 17.9307 8.03797C18.4478 8.07325 18.7677 8.14084 19.0215 8.24598C19.8055 8.57075 20.4282 9.19345 20.7529 9.97742C20.8581 10.2312 20.9257 10.5511 20.9609 11.0682C20.9967 11.5925 20.9971 12.2594 20.9971 13.202C20.9971 13.2227 20.9985 13.2432 21 13.2636V16.2011C21 17.8811 20.9998 18.7215 20.6729 19.3632C20.3853 19.9274 19.9265 20.3861 19.3623 20.6737C18.7206 21.0007 17.8802 21.0009 16.2002 21.0009H7.7998C6.11978 21.0009 5.27941 21.0007 4.6377 20.6737C4.07347 20.3861 3.61472 19.9274 3.32715 19.3632C3.00018 18.7215 3 17.8811 3 16.2011V9.46082C3 8.21692 2.99993 7.59454 3.20801 7.06531C3.39177 6.59807 3.6901 6.18433 4.0752 5.86219C4.51149 5.49733 5.102 5.30052 6.28223 4.90711L13.7881 2.40516ZM15.2002 10.9081C14.8268 10.6722 14.3328 10.784 14.0967 11.1571L13.6191 11.913L12.665 13.4237L11.3184 15.5536L9.84375 13.9198C9.54776 13.5919 9.04186 13.5653 8.71387 13.8612C8.38593 14.1572 8.36038 14.6631 8.65625 14.9911L10.8379 17.4091C11.0056 17.5948 11.2506 17.6911 11.5 17.6698C11.7493 17.6485 11.9747 17.5121 12.1084 17.3007L14.0176 14.2782L14.9717 12.7675L15.4492 12.0126C15.6852 11.6391 15.5737 11.1441 15.2002 10.9081Z" fill="currentColor"/>
</g>

</svg>
