<svg width="24" height="24" viewBox="0 0 24 24" fill="none" xmlns="http://www.w3.org/2000/svg">
<g id="24_icon-fill/wallet">
<path id="Subtract" d="M13.7881 2.40516C15.2101 1.93115 15.9214 1.69371 16.4873 1.83582C16.9826 1.96025 17.4119 2.26948 17.6865 2.70008C18.0003 3.19202 18 3.94161 18 5.44031V6.43934C17.4158 6.40166 16.6971 6.40223 15.7969 6.40223H10.2969C9.85505 6.40223 9.49707 6.7602 9.49707 7.20203C9.49707 7.64386 9.85505 8.00184 10.2969 8.00184H15.7969C16.7395 8.00184 17.4064 8.00222 17.9307 8.03797C18.4478 8.07325 18.7677 8.14084 19.0215 8.24598C19.8055 8.57075 20.4282 9.19345 20.7529 9.97742C20.8581 10.2312 20.9257 10.5511 20.9609 11.0682C20.9967 11.5925 20.9971 12.2594 20.9971 13.202C20.9971 13.2227 20.9985 13.2432 21 13.2636V16.2011C21 17.8811 20.9998 18.7215 20.6729 19.3632C20.3853 19.9274 19.9265 20.3861 19.3623 20.6737C18.7206 21.0007 17.8802 21.0009 16.2002 21.0009H7.7998C6.11978 21.0009 5.27941 21.0007 4.6377 20.6737C4.07347 20.3861 3.61472 19.9274 3.32715 19.3632C3.00018 18.7215 3 17.8811 3 16.2011V9.46082C3 8.21692 2.99993 7.59454 3.20801 7.06531C3.39177 6.59807 3.6901 6.18433 4.0752 5.86219C4.51149 5.49733 5.102 5.30052 6.28223 4.90711L13.7881 2.40516ZM5.5 14.7011C5.05817 14.7011 4.7002 15.059 4.7002 15.5009C4.7002 15.9427 5.05817 16.3007 5.5 16.3007C5.78891 16.3007 6.07488 16.3581 6.3418 16.4686C6.60871 16.5792 6.85138 16.7409 7.05566 16.9452C7.25995 17.1495 7.42167 17.3922 7.53223 17.6591C7.64279 17.926 7.7002 18.212 7.7002 18.5009C7.7002 18.9427 8.05817 19.3007 8.5 19.3007C8.94183 19.3007 9.2998 18.9427 9.2998 18.5009C9.2998 18.0019 9.20169 17.5078 9.01074 17.0468C8.81977 16.5857 8.53939 16.1672 8.18652 15.8143C7.83366 15.4615 7.41514 15.1811 6.9541 14.9901C6.49309 14.7992 5.99899 14.7011 5.5 14.7011ZM6 11.2011C5.55817 11.2011 5.2002 11.559 5.2002 12.0009C5.2002 12.4427 5.55817 12.8007 6 12.8007C6.68287 12.8007 7.35934 12.9358 7.99023 13.1971C8.62097 13.4585 9.194 13.8413 9.67676 14.3241C10.1595 14.8069 10.5424 15.3799 10.8037 16.0106C11.065 16.6415 11.2002 17.318 11.2002 18.0009C11.2002 18.4427 11.5582 18.8007 12 18.8007C12.4418 18.8007 12.7998 18.4427 12.7998 18.0009C12.7998 17.1079 12.624 16.2233 12.2822 15.3983C11.9405 14.5734 11.44 13.8236 10.8086 13.1923C10.1772 12.5609 9.42743 12.0604 8.60254 11.7186C7.77752 11.3769 6.89299 11.2011 6 11.2011Z" fill="currentColor"/>
</g>

</svg>
