<svg width="24" height="24" viewBox="0 0 24 24" fill="none" xmlns="http://www.w3.org/2000/svg">
<g id="24_icon-fill/wheel">
<path id="Union" d="M14.5 3.00488C14.5489 3.00331 14.5983 3 14.6475 3C18.1559 3.00035 21 7.02965 21 12C21 16.9703 18.1559 20.9997 14.6475 21C14.5983 21 14.5489 20.9957 14.5 20.9941V21H9.5V20.9941C9.45108 20.9957 9.40173 21 9.35254 21C5.84409 20.9997 3 16.9704 3 12C3 7.02963 5.84409 3.00031 9.35254 3C9.40172 3 9.45109 3.00331 9.5 3.00488V3H14.5V3.00488ZM14.5 6C12.567 6 11 8.68629 11 12C11 15.3137 12.567 18 14.5 18C16.433 18 18 15.3137 18 12C18 8.68629 16.433 6 14.5 6ZM13.5059 7.96387C13.6979 7.77441 14.0021 7.85263 14.123 8.09375C14.6494 9.14331 14.9688 10.5076 14.9688 12C14.9688 13.4931 14.6498 14.8584 14.123 15.9082C14.0021 16.1491 13.6988 16.2264 13.5068 16.0371C12.7628 15.3031 12.2501 13.7722 12.25 12.001C12.25 10.2298 12.762 8.69816 13.5059 7.96387Z" fill="currentColor"/>
</g>

</svg>
