<svg width="28" height="28" fill="none" xmlns="http://www.w3.org/2000/svg"><g clip-path="url(#clip0_5582_104)"><path d="M7.383 14.244c0-.136.025-.261.075-.376.05-.122.125-.233.226-.333L16.202 5.2a.97.97 0 0 1 .698-.28c.187 0 .351.044.495.13.15.086.268.204.354.354.093.144.14.308.14.494a.975.975 0 0 1-.29.699l-7.82 7.648 7.82 7.649a.975.975 0 0 1 .15 1.192.936.936 0 0 1-.354.354.942.942 0 0 1-.495.13.952.952 0 0 1-.698-.29l-8.518-8.326c-.1-.1-.176-.208-.226-.322a1.006 1.006 0 0 1-.075-.387z" fill="#000"/></g><defs><clipPath id="clip0_5582_104"><path fill="#fff" d="M0 0H28V28H0z"/></clipPath></defs></svg>