<svg width="28" height="28" fill="none" xmlns="http://www.w3.org/2000/svg"><g clip-path="url(#clip0_5582_103)"><path d="M6.019 16.274c-.38 0-.724-.09-1.032-.268a2.16 2.16 0 0 1-.74-.741 1.993 1.993 0 0 1-.27-1.02c0-.38.09-.724.27-1.032a2.07 2.07 0 0 1 .74-.73c.308-.187.652-.28 1.032-.28.372 0 .712.093 1.02.28.308.178.551.422.73.73.187.308.28.652.28 1.031 0 .373-.093.713-.28 1.02a2.07 2.07 0 0 1-.73.742 1.994 1.994 0 0 1-1.02.268zm7.981 0c-.38 0-.723-.09-1.031-.268a2.16 2.16 0 0 1-.742-.741 1.994 1.994 0 0 1-.268-1.02c0-.38.09-.724.268-1.032a2.07 2.07 0 0 1 .742-.73c.308-.187.651-.28 1.031-.28.372 0 .713.093 1.02.28.309.178.552.422.731.73.186.308.28.652.28 1.031 0 .373-.094.713-.28 1.02a2.07 2.07 0 0 1-.73.742 1.994 1.994 0 0 1-1.021.268zm7.981 0c-.38 0-.723-.09-1.03-.268a2.16 2.16 0 0 1-.742-.741 1.993 1.993 0 0 1-.269-1.02c0-.38.09-.724.269-1.032a2.07 2.07 0 0 1 .741-.73c.308-.187.652-.28 1.031-.28.373 0 .713.093 1.021.28.308.178.555.422.741.73.186.308.28.652.28 1.031 0 .373-.094.713-.28 1.02a2.16 2.16 0 0 1-.741.742 1.994 1.994 0 0 1-1.02.268z" fill="#000"/></g><defs><clipPath id="clip0_5582_103"><path fill="#fff" d="M0 0H28V28H0z"/></clipPath></defs></svg>