<svg width="28" height="28" fill="none" xmlns="http://www.w3.org/2000/svg"><g clip-path="url(#clip0_5582_102)"><path d="M5.76 22.494a.891.891 0 0 1-.257-.43 1.049 1.049 0 0 1 .01-.494.93.93 0 0 1 .248-.43l6.875-6.885L5.76 7.38a.93.93 0 0 1-.247-.43 1.15 1.15 0 0 1 0-.494.93.93 0 0 1 .247-.43.82.82 0 0 1 .43-.247.963.963 0 0 1 .494 0 .824.824 0 0 1 .44.247L14 12.901l6.875-6.875a.82.82 0 0 1 .43-.247.963.963 0 0 1 .494 0 .88.88 0 0 1 .44.247.963.963 0 0 1 0 1.354l-6.875 6.875 6.875 6.886c.122.121.2.265.237.43a.963.963 0 0 1 0 .493.853.853 0 0 1-.237.43.824.824 0 0 1-.44.247.962.962 0 0 1-.924-.247L14 15.62l-6.875 6.875a.963.963 0 0 1-.924.247 1.002 1.002 0 0 1-.44-.247z" fill="#000"/></g><defs><clipPath id="clip0_5582_102"><path fill="#fff" d="M0 0H28V28H0z"/></clipPath></defs></svg>