<svg xmlns="http://www.w3.org/2000/svg" width="1em" height="1em" fill="none" viewBox="0 0 24 24"><path fill="currentColor" d="M6.597 21.572 6.394 22H2v-2.407l7.462-4.07zm8.798.428h-6.79L12 14.834zM22 19.593V22h-4.394l-.203-.428-2.866-6.05zM9.72 4.758l.002.005.003.012.01.046q.016.06.042.174a54 54 0 0 1 .583 2.897c.224 1.3.447 2.9.56 4.55l-.003.008L2 17.315v-2.66c0-2.262.325-4.373.646-5.91a31 31 0 0 1 .593-2.363l.043-.14.013-.038.003-.01V6.19H3.3v-.002l.95-2.896.95 2.896v.001l.001.001.001.003.003.011.013.038.043.14q.055.182.148.515c.122.443.283 1.076.445 1.847.32 1.538.646 3.649.646 5.911V14.5c0-2.331.323-4.77.64-6.607a54 54 0 0 1 .583-2.898q.026-.113.042-.174l.01-.046.003-.012.001-.004v-.001h.001L8.75.877zm6.5 0 .002.005.003.012.01.046q.016.06.042.174a53 53 0 0 1 .583 2.898c.317 1.838.64 4.276.64 6.607v.155c0-2.262.325-4.373.646-5.91a31 31 0 0 1 .593-2.363l.043-.14.013-.038.003-.01V6.19h.002v-.002l.95-2.896.95 2.896v.001l.001.001.001.003.003.011.013.038.043.14q.055.182.148.515c.122.443.283 1.076.445 1.847.32 1.538.646 3.649.646 5.911v2.66l-8.917-4.864-.007-.013a46 46 0 0 1 .564-4.545 54 54 0 0 1 .583-2.898q.026-.113.042-.174l.01-.046.003-.012.001-.004v-.001h.001l.97-3.881z"/></svg>